<svg xmlns="http://www.w3.org/2000/svg" xmlns:xlink="http://www.w3.org/1999/xlink" viewBox="0 0 682.73 405.67"><defs><style>.cls-1{isolation:isolate;}.cls-2{fill:#eeeefe;}.cls-3{fill:#f2f2f2;}.cls-4{fill:url(#linear-gradient);}.cls-11,.cls-5{fill:#5455cf;}.cls-6{fill:#3a3772;}.cls-10,.cls-13,.cls-7,.cls-9{fill:#a6bcfe;}.cls-19,.cls-8{fill:#f3d656;}.cls-10,.cls-11,.cls-19,.cls-31,.cls-35,.cls-9{mix-blend-mode:multiply;}.cls-10{opacity:0.44;}.cls-11{opacity:0.5;}.cls-12{fill:#c9daf3;}.cls-13{opacity:0.59;}.cls-13,.cls-20{mix-blend-mode:screen;}.cls-14{font-size:47.4px;font-family:Rubik-Black, Rubik Black;font-weight:800;letter-spacing:0.1em;}.cls-14,.cls-21{fill:#fff;}.cls-15{fill:url(#linear-gradient-2);}.cls-16{fill:#e6b7ba;}.cls-17{fill:#edcacd;}.cls-18{fill:url(#linear-gradient-3);}.cls-20{opacity:0.46;}.cls-22{fill:url(#linear-gradient-4);}.cls-23{fill:url(#linear-gradient-5);}.cls-24{fill:url(#linear-gradient-6);}.cls-25{fill:url(#linear-gradient-7);}.cls-26{fill:url(#linear-gradient-8);}.cls-27{fill:#985d63;}.cls-28{fill:#a46f74;}.cls-29{fill:url(#linear-gradient-9);}.cls-30{fill:#c5daf3;}.cls-31{fill:#c8c8c8;}.cls-32{fill:url(#linear-gradient-10);}.cls-33{fill:url(#linear-gradient-11);}.cls-34{fill:url(#linear-gradient-12);}.cls-36{fill:url(#linear-gradient-13);}.cls-37{fill:url(#linear-gradient-14);}.cls-38{fill:#8492c7;}.cls-39{fill:url(#linear-gradient-15);}.cls-40{fill:url(#linear-gradient-16);}.cls-41{fill:url(#linear-gradient-17);}</style><linearGradient id="linear-gradient" x1="171.66" y1="59.75" x2="212.77" y2="59.75" gradientUnits="userSpaceOnUse"><stop offset="0" stop-color="#f1d660"/><stop offset="1" stop-color="#f59c36"/></linearGradient><linearGradient id="linear-gradient-2" x1="606.83" y1="288.35" x2="628.54" y2="272.07" gradientTransform="matrix(-1, 0, 0, 1, 1059.02, 0)" gradientUnits="userSpaceOnUse"><stop offset="0.01" stop-color="#e289d9"/><stop offset="0.17" stop-color="#e398d0"/><stop offset="0.44" stop-color="#e5abc4"/><stop offset="0.72" stop-color="#e6b7bc"/><stop offset="1" stop-color="#e6bbba"/></linearGradient><linearGradient id="linear-gradient-3" x1="458.85" y1="305.99" x2="434" y2="288.73" gradientUnits="userSpaceOnUse"><stop offset="0" stop-color="#e3808e"/><stop offset="0.02" stop-color="#e38290"/><stop offset="0.43" stop-color="#e9a9b1"/><stop offset="0.75" stop-color="#ecc1c5"/><stop offset="0.95" stop-color="#edcacd"/></linearGradient><linearGradient id="linear-gradient-4" x1="455.27" y1="307.74" x2="438.39" y2="291.9" xlink:href="#linear-gradient-3"/><linearGradient id="linear-gradient-5" x1="587.85" y1="355.07" x2="611.39" y2="355.07" gradientTransform="matrix(-1, 0, 0, 1, 1059.02, 0)" gradientUnits="userSpaceOnUse"><stop offset="0" stop-color="#f59c36"/><stop offset="1" stop-color="#f1d660"/></linearGradient><linearGradient id="linear-gradient-6" x1="562.61" y1="352.08" x2="601.21" y2="352.08" xlink:href="#linear-gradient-5"/><linearGradient id="linear-gradient-7" x1="1079.36" y1="354.03" x2="1102.9" y2="354.03" gradientTransform="translate(-937.13)" xlink:href="#linear-gradient-5"/><linearGradient id="linear-gradient-8" x1="1054.12" y1="351.04" x2="1092.73" y2="351.04" gradientTransform="translate(-937.13)" xlink:href="#linear-gradient-5"/><linearGradient id="linear-gradient-9" x1="140.98" y1="315.11" x2="169.28" y2="294.11" gradientUnits="userSpaceOnUse"><stop offset="0" stop-color="#e3808e"/><stop offset="0.27" stop-color="#e38693"/><stop offset="0.64" stop-color="#e398a1"/><stop offset="1" stop-color="#e4b0b5"/></linearGradient><linearGradient id="linear-gradient-10" x1="150.34" y1="314.3" x2="164.93" y2="300.24" xlink:href="#linear-gradient-9"/><linearGradient id="linear-gradient-11" x1="293.63" y1="277.38" x2="310.71" y2="277.09" xlink:href="#linear-gradient-3"/><linearGradient id="linear-gradient-12" x1="293.44" y1="293.47" x2="299.04" y2="326.83" gradientTransform="matrix(1, 0, 0, 1, 0, 0)" xlink:href="#linear-gradient-5"/><linearGradient id="linear-gradient-13" x1="298.22" y1="291.66" x2="284.64" y2="262.66" xlink:href="#linear-gradient-9"/><linearGradient id="linear-gradient-14" x1="366.48" y1="62.92" x2="352.61" y2="67.94" gradientUnits="userSpaceOnUse"><stop offset="0" stop-color="#e3808e"/><stop offset="0.14" stop-color="#e48693"/><stop offset="0.34" stop-color="#e698a2"/><stop offset="0.57" stop-color="#eab5bb"/><stop offset="0.71" stop-color="#edcacd"/></linearGradient><linearGradient id="linear-gradient-15" x1="372.09" y1="54.25" x2="362.84" y2="66.77" xlink:href="#linear-gradient-14"/><linearGradient id="linear-gradient-16" x1="346.48" y1="86.54" x2="371.22" y2="86.54" xlink:href="#linear-gradient"/><linearGradient id="linear-gradient-17" x1="354.7" y1="97.01" x2="342.72" y2="90.5" gradientTransform="matrix(1, 0, 0, 1, 0, 0)" xlink:href="#linear-gradient-5"/></defs><g class="cls-1"><g id="Layer_2" data-name="Layer 2"><g id="BACKGROUND"><path class="cls-2" d="M642.47,135.62c-.66-11.53-3.14-23.14-8.84-33.18-12-21.16-36.71-32.27-60.82-35.67-25.17-3.55-51.3,2.47-76-1.87-37.31-6.53-68.7-29.78-105.52-38.35-24.7-5.74-51.55-5.66-74.44,5.23l-.43.21a160.81,160.81,0,0,1-122.47,8.89c-13.47-4.46-26.18-8.34-36-10.62-24.69-5.74-51.54-5.66-74.44,5.23a88.76,88.76,0,0,0-35,30.22c-15.25,22.45-14,48.15-1.93,71.82,6,11.82,14.62,23.62,21.36,36,6,11,10.47,22.42,10.48,34.77,0,26.34-21.74,48.31-24.48,74.51C52,301.22,60.55,320.4,75.65,331.06c9.49,6.7,326,5.81,443.11,5.25A65.79,65.79,0,0,0,584.21,274l0-.64c.94-19.61,8.26-36.83,19.57-52.61,11.67-16.29,26.77-31.22,34-50.23C642,159.46,643.15,147.43,642.47,135.62Z"/><path class="cls-2" d="M59.05,199.43a9.13,9.13,0,0,0,3.58,3.88.93.93,0,0,1-.05,1.61,9.06,9.06,0,0,0-3.82,3.64.92.92,0,0,1-1.63-.06,9.19,9.19,0,0,0-3.58-3.88.91.91,0,0,1,.05-1.6,9.12,9.12,0,0,0,3.82-3.64A.92.92,0,0,1,59.05,199.43Z"/><path class="cls-2" d="M34.63,197.55a9.13,9.13,0,0,0,3.58,3.88.92.92,0,0,1-.05,1.6,9.06,9.06,0,0,0-3.82,3.64.92.92,0,0,1-1.63,0,9.19,9.19,0,0,0-3.58-3.88.91.91,0,0,1,.05-1.6A9.14,9.14,0,0,0,33,197.49.92.92,0,0,1,34.63,197.55Z"/><path class="cls-2" d="M41.5,174.85a9.19,9.19,0,0,0,3.58,3.88.92.92,0,0,1,0,1.6A9.06,9.06,0,0,0,41.21,184a.92.92,0,0,1-1.63-.05A9.19,9.19,0,0,0,36,180a.93.93,0,0,1,0-1.61,9.06,9.06,0,0,0,3.82-3.64A.92.92,0,0,1,41.5,174.85Z"/><path class="cls-2" d="M238.69,36.6a9.13,9.13,0,0,0-5.14,1.21.92.92,0,0,1-1.37-.83,9.18,9.18,0,0,0-1.3-5.11.91.91,0,0,1,.84-1.39,9.14,9.14,0,0,0,5.14-1.23.92.92,0,0,1,1.37.83,9.18,9.18,0,0,0,1.3,5.12A.92.92,0,0,1,238.69,36.6Z"/><path class="cls-2" d="M238.69,7.47a9,9,0,0,0-5.14,1.21.92.92,0,0,1-1.37-.83,9.16,9.16,0,0,0-1.3-5.11.92.92,0,0,1,.84-1.4A9.14,9.14,0,0,0,236.86.12a.92.92,0,0,1,1.37.83,9.2,9.2,0,0,0,1.3,5.12A.93.93,0,0,1,238.69,7.47Z"/><path class="cls-2" d="M204.2,19.57a9.13,9.13,0,0,0-5.14,1.21.92.92,0,0,1-1.37-.83,9.18,9.18,0,0,0-1.3-5.11.92.92,0,0,1,.84-1.4,9.06,9.06,0,0,0,5.14-1.22.92.92,0,0,1,1.37.83,9.2,9.2,0,0,0,1.3,5.12A.92.92,0,0,1,204.2,19.57Z"/><path class="cls-2" d="M643.64,195.61A8.64,8.64,0,0,0,647,199.3a.88.88,0,0,1,0,1.53,8.66,8.66,0,0,0-3.62,3.45.88.88,0,0,1-1.55,0,8.68,8.68,0,0,0-3.41-3.69.88.88,0,0,1,.05-1.53,8.68,8.68,0,0,0,3.64-3.46A.88.88,0,0,1,643.64,195.61Z"/><path class="cls-2" d="M629.89,213.48a8.64,8.64,0,0,0,3.39,3.69.88.88,0,0,1,0,1.53,8.63,8.63,0,0,0-3.62,3.46.88.88,0,0,1-1.55,0,8.68,8.68,0,0,0-3.41-3.69.88.88,0,0,1,.05-1.53,8.61,8.61,0,0,0,3.64-3.46A.88.88,0,0,1,629.89,213.48Z"/><path class="cls-2" d="M650.23,216.53a8.61,8.61,0,0,0,3.39,3.68.88.88,0,0,1,0,1.53A8.69,8.69,0,0,0,650,225.2a.88.88,0,0,1-1.55,0,8.74,8.74,0,0,0-3.41-3.69.87.87,0,0,1,0-1.52,8.74,8.74,0,0,0,3.64-3.46A.87.87,0,0,1,650.23,216.53Z"/><path class="cls-2" d="M504,54.69a8.65,8.65,0,0,0-4.88,1.15.88.88,0,0,1-1.31-.79,8.63,8.63,0,0,0-1.24-4.85.88.88,0,0,1,.81-1.33,8.7,8.7,0,0,0,4.88-1.16.87.87,0,0,1,1.3.79,8.74,8.74,0,0,0,1.24,4.86A.88.88,0,0,1,504,54.69Z"/><path class="cls-2" d="M504,27a8.66,8.66,0,0,0-4.88,1.16.88.88,0,0,1-1.31-.79,8.66,8.66,0,0,0-1.24-4.86.87.87,0,0,1,.81-1.32A8.78,8.78,0,0,0,502.29,20a.87.87,0,0,1,1.3.78,8.75,8.75,0,0,0,1.24,4.87A.87.87,0,0,1,504,27Z"/><path class="cls-2" d="M471.25,38.5a8.68,8.68,0,0,0-4.88,1.16.87.87,0,0,1-1.3-.79A8.74,8.74,0,0,0,463.83,34a.87.87,0,0,1,.8-1.32,8.74,8.74,0,0,0,4.88-1.16.88.88,0,0,1,1.31.78,8.67,8.67,0,0,0,1.24,4.87A.87.87,0,0,1,471.25,38.5Z"/></g><g id="OBJECTS"><ellipse class="cls-3" cx="341.36" cy="368.92" rx="341.36" ry="36.75"/><path class="cls-4" d="M182.36,43.51a34.13,34.13,0,0,1,18.35,6.71,52.12,52.12,0,0,1,12,12.56l.1.15-10.1,13.13-.13,0a40.13,40.13,0,0,1-14.15-5.32,35.94,35.94,0,0,1-13.88-16.56,53.38,53.38,0,0,1-2.8-8.15A1.56,1.56,0,0,1,173,44.09,39.79,39.79,0,0,1,182.36,43.51Z"/><path class="cls-5" d="M200.71,50.22c8,3.26,15.15,6.92,20.34,11.47l-8.38,1.09A52.12,52.12,0,0,0,200.71,50.22Z"/><path class="cls-5" d="M188.39,70.71A40.13,40.13,0,0,0,202.54,76l1.34,10.37C198.45,82.74,193.33,77.2,188.39,70.71Z"/><polygon class="cls-5" points="214.28 74.55 206.72 73.79 192.06 59.5 210.91 67.47 214.28 74.55"/><path class="cls-5" d="M185.33,58.91a5.21,5.21,0,1,0-5.84-4.49A5.2,5.2,0,0,0,185.33,58.91Z"/><path class="cls-5" d="M182.36,43.51l-7.85,10.64c-.41-.28-1.15-2.36-2.8-8.15A1.55,1.55,0,0,1,173,44.09,39.79,39.79,0,0,1,182.36,43.51Z"/><path class="cls-5" d="M216.71,78a.46.46,0,0,1-.27-.09c-2-1.36-2-1.66-2-1.84a.47.47,0,0,1,.4-.54.49.49,0,0,1,.52.28A9.48,9.48,0,0,0,217,77.09a.48.48,0,0,1-.28.88Z"/><path class="cls-5" d="M495.47,149.78c-1.06,0-2.13,0-3.18-.08a.47.47,0,0,1-.45-.5.49.49,0,0,1,.5-.46c1.57.08,3.15.1,4.73.06h0a.48.48,0,0,1,0,1C496.55,149.78,496,149.78,495.47,149.78Zm6.37-.33a.49.49,0,0,1-.48-.43.48.48,0,0,1,.43-.53c1.56-.17,3.13-.39,4.67-.68a.48.48,0,0,1,.18.94c-1.57.29-3.17.53-4.75.69Zm-14.27-.18h-.06c-1.58-.2-3.18-.48-4.73-.81a.48.48,0,0,1,.19-.94c1.54.33,3.11.6,4.66.8a.48.48,0,0,1-.06,1Zm23.63-1.57a.49.49,0,0,1-.47-.36.48.48,0,0,1,.34-.59c1.52-.41,3-.89,4.51-1.42a.48.48,0,1,1,.32.9c-1.49.54-3,1-4.58,1.45Zm-32.94-.41a.32.32,0,0,1-.14,0c-1.53-.45-3.07-1-4.55-1.54a.48.48,0,0,1,.34-.9c1.47.56,3,1.07,4.48,1.52a.48.48,0,0,1-.13.94Zm41.89-2.83a.48.48,0,0,1-.2-.91c1.43-.65,2.84-1.37,4.21-2.14a.48.48,0,1,1,.47.84c-1.39.78-2.83,1.51-4.28,2.17A.48.48,0,0,1,520.15,144.46Zm-50.78-.59a.41.41,0,0,1-.21-.05c-1.44-.69-2.87-1.45-4.25-2.25a.48.48,0,0,1,.49-.83c1.35.79,2.76,1.54,4.17,2.22a.48.48,0,0,1,.23.64A.47.47,0,0,1,469.37,143.87Zm59.08-4.06a.48.48,0,0,1-.4-.21.48.48,0,0,1,.13-.67c1.3-.88,2.58-1.82,3.8-2.8a.48.48,0,1,1,.6.75c-1.24,1-2.54,2-3.86,2.85A.45.45,0,0,1,528.45,139.81Zm-67.31-.74a.57.57,0,0,1-.28-.08c-1.31-.92-2.6-1.9-3.82-2.91a.48.48,0,1,1,.61-.74c1.21,1,2.47,2,3.76,2.86a.48.48,0,0,1,.12.67A.47.47,0,0,1,461.14,139.07Zm74.73-5.22a.47.47,0,0,1-.35-.15.49.49,0,0,1,0-.68c1.13-1.08,2.24-2.22,3.28-3.4a.49.49,0,0,1,.68,0,.47.47,0,0,1,0,.67c-1.06,1.19-2.19,2.36-3.34,3.45A.47.47,0,0,1,535.87,133.85ZM453.8,133a.5.5,0,0,1-.34-.13c-1.14-1.12-2.25-2.29-3.3-3.49a.49.49,0,0,1,0-.68.48.48,0,0,1,.67.05c1,1.18,2.13,2.33,3.25,3.43a.48.48,0,0,1,0,.68A.49.49,0,0,1,453.8,133Zm88.41-6.26a.52.52,0,0,1-.29-.09.49.49,0,0,1-.09-.68c.94-1.24,1.85-2.54,2.7-3.87a.47.47,0,0,1,.66-.15.49.49,0,0,1,.15.67c-.87,1.35-1.79,2.67-2.75,3.93A.46.46,0,0,1,542.21,126.74Zm-94.68-.91a.46.46,0,0,1-.38-.19c-.95-1.28-1.86-2.61-2.71-4a.48.48,0,0,1,.15-.66.49.49,0,0,1,.67.15c.83,1.34,1.73,2.65,2.66,3.91a.48.48,0,0,1-.1.67A.52.52,0,0,1,447.53,125.83Zm-5-8.06a.49.49,0,0,1-.43-.26c-.32-.6-.62-1.21-.92-1.83-.4-.82-.8-1.64-1.21-2.44a.49.49,0,0,1,.21-.65.48.48,0,0,1,.65.22c.41.81.81,1.62,1.21,2.45.3.61.6,1.21.91,1.8a.49.49,0,0,1-.2.65A.46.46,0,0,1,442.48,117.77Zm-4.33-8.5a.48.48,0,0,1-.42-.25c-.76-1.42-1.52-2.8-2.3-4.16a.48.48,0,1,1,.84-.48c.77,1.37,1.55,2.76,2.31,4.18a.49.49,0,0,1-.2.65A.46.46,0,0,1,438.15,109.27ZM433.43,101a.5.5,0,0,1-.41-.23c-.83-1.37-1.68-2.72-2.53-4a.47.47,0,0,1,.15-.66.48.48,0,0,1,.66.14c.85,1.32,1.71,2.68,2.54,4a.48.48,0,0,1-.16.66A.55.55,0,0,1,433.43,101Zm-5.19-8a.47.47,0,0,1-.39-.2c-.91-1.31-1.84-2.61-2.77-3.86a.48.48,0,0,1,.1-.67.47.47,0,0,1,.67.1c.94,1.26,1.88,2.56,2.79,3.88a.49.49,0,0,1-.12.67A.48.48,0,0,1,428.24,93ZM249.08,88.71h-1.21a.49.49,0,0,1-.47-.5.49.49,0,0,1,.5-.46,38.59,38.59,0,0,0,4.7-.15.48.48,0,0,1,.52.44.47.47,0,0,1-.43.52C251.51,88.66,250.3,88.71,249.08,88.71Zm-5.94-.41h-.07c-1.54-.21-3.13-.5-4.73-.87a.48.48,0,0,1-.36-.57.48.48,0,0,1,.58-.36c1.57.36,3.13.64,4.64.85a.48.48,0,0,1-.06,1Zm14.21-.5a.48.48,0,0,1-.11-1,33.73,33.73,0,0,0,4.48-1.39.48.48,0,0,1,.62.27.48.48,0,0,1-.27.62,32.57,32.57,0,0,1-4.62,1.43Zm-23.5-1.61a.35.35,0,0,1-.14,0c-1.5-.47-3-1-4.52-1.61a.48.48,0,1,1,.35-.89c1.48.59,3,1.12,4.46,1.59a.48.48,0,0,1-.15.94Zm188.72-.84a.46.46,0,0,1-.38-.18c-1-1.24-2-2.47-3-3.67a.48.48,0,0,1,.06-.67.47.47,0,0,1,.67,0c1,1.21,2.05,2.45,3,3.69a.48.48,0,0,1-.08.68A.45.45,0,0,1,422.57,85.35Zm-156.4-1a.48.48,0,0,1-.41-.23.48.48,0,0,1,.17-.66,32.32,32.32,0,0,0,3.87-2.65.48.48,0,1,1,.6.75,33.84,33.84,0,0,1-4,2.73A.54.54,0,0,1,266.17,84.3ZM225,82.67a.48.48,0,0,1-.2,0c-1.46-.7-2.9-1.44-4.26-2.21a.48.48,0,1,1,.47-.84c1.35.76,2.76,1.49,4.2,2.18a.48.48,0,0,1-.21.91Zm48.62-4.27a.47.47,0,0,1-.33-.14.49.49,0,0,1,0-.68A39.59,39.59,0,0,0,276.31,74a.47.47,0,0,1,.67-.1.49.49,0,0,1,.1.68A43.31,43.31,0,0,1,274,78.25.49.49,0,0,1,273.61,78.4Zm142.77-.3A.5.5,0,0,1,416,78c-1.07-1.17-2.17-2.33-3.27-3.44a.49.49,0,0,1,0-.68.48.48,0,0,1,.68,0q1.68,1.69,3.3,3.47a.49.49,0,0,1,0,.68A.5.5,0,0,1,416.38,78.1Zm-6.69-6.78a.46.46,0,0,1-.33-.13C408.21,70.11,407,69,405.84,68a.48.48,0,1,1,.63-.72c1.19,1,2.39,2.11,3.55,3.2a.49.49,0,0,1,0,.68A.47.47,0,0,1,409.69,71.32Zm-130.2-.42a.52.52,0,0,1-.29-.09.49.49,0,0,1-.09-.68c1-1.27,2-2.53,3-3.73a.49.49,0,0,1,.68-.06.48.48,0,0,1,0,.68c-1,1.19-2,2.43-3,3.69A.48.48,0,0,1,279.49,70.9Zm123-5.82a.49.49,0,0,1-.3-.1c-1.24-1-2.51-2-3.77-2.89a.48.48,0,1,1,.57-.77c1.27.93,2.55,1.91,3.8,2.91a.48.48,0,0,1,.08.67A.49.49,0,0,1,402.49,65.08Zm-116.8-1.42a.5.5,0,0,1-.34-.13.49.49,0,0,1,0-.68c1.11-1.14,2.27-2.27,3.44-3.34a.49.49,0,0,1,.68,0,.48.48,0,0,1,0,.68c-1.16,1.06-2.3,2.17-3.4,3.3A.45.45,0,0,1,285.69,63.66Zm109.12-4.21a.53.53,0,0,1-.27-.08c-1.31-.88-2.66-1.75-4-2.56a.48.48,0,0,1,.5-.82c1.35.82,2.7,1.69,4,2.58a.47.47,0,0,1,.13.66A.49.49,0,0,1,394.81,59.45ZM292.73,57.24a.49.49,0,0,1-.38-.18.48.48,0,0,1,.08-.67c1.24-1,2.53-2,3.83-2.89a.48.48,0,1,1,.55.79c-1.28.9-2.55,1.86-3.78,2.85A.49.49,0,0,1,292.73,57.24Zm93.95-2.76a.46.46,0,0,1-.23-.06c-1.38-.76-2.79-1.51-4.2-2.21a.47.47,0,0,1-.22-.64.48.48,0,0,1,.65-.22c1.42.71,2.84,1.46,4.23,2.23a.48.48,0,0,1-.23.9Zm-86.17-2.73a.48.48,0,0,1-.41-.23.5.5,0,0,1,.16-.66c1.36-.83,2.76-1.63,4.17-2.38a.48.48,0,0,1,.45.85c-1.39.74-2.77,1.53-4.12,2.35A.43.43,0,0,1,300.51,51.75Zm77.64-1.52a.65.65,0,0,1-.19,0c-1.44-.64-2.91-1.26-4.38-1.84a.48.48,0,0,1,.36-.9c1.48.59,3,1.21,4.41,1.86a.48.48,0,0,1-.2.92Zm-69.22-2.94a.48.48,0,0,1-.44-.28.47.47,0,0,1,.24-.63c1.46-.66,2.95-1.28,4.44-1.83a.48.48,0,0,1,.62.28.49.49,0,0,1-.28.62c-1.47.55-2.94,1.15-4.38,1.8A.48.48,0,0,1,308.93,47.29Zm60.36-.57a.4.4,0,0,1-.15,0c-1.49-.51-3-1-4.52-1.46a.48.48,0,1,1,.28-.92c1.53.46,3.06,1,4.55,1.48a.48.48,0,0,1,.3.61A.5.5,0,0,1,369.29,46.72ZM360.17,44l-.12,0c-1.52-.39-3.07-.75-4.62-1.09a.47.47,0,0,1-.37-.57.48.48,0,0,1,.57-.36c1.56.33,3.13.7,4.66,1.09a.48.48,0,0,1-.12.95Zm-42.32,0a.47.47,0,0,1-.46-.34.48.48,0,0,1,.32-.6c1.53-.46,3.09-.87,4.64-1.23a.48.48,0,0,1,.21.93c-1.52.36-3.06.77-4.57,1.22A.34.34,0,0,1,317.85,44Zm33-2h-.08l-.53-.09c-1.38-.23-2.78-.42-4.16-.57a.5.5,0,0,1-.43-.53.49.49,0,0,1,.53-.43c1.4.15,2.82.35,4.21.59l.54.09a.48.48,0,0,1-.08.95Zm-23.72-.16a.48.48,0,0,1-.47-.41.47.47,0,0,1,.39-.55c1.58-.25,3.18-.46,4.76-.61a.48.48,0,1,1,.09,1c-1.56.15-3.14.35-4.69.6ZM341.38,41h0c-1.58-.07-3.16-.08-4.73,0h0a.48.48,0,0,1-.48-.46.5.5,0,0,1,.47-.5c1.59,0,3.19,0,4.8,0a.48.48,0,0,1,0,1Z"/><path class="cls-5" d="M547.42,118.61a.53.53,0,0,1-.23-.06.49.49,0,0,1-.19-.65l1.14-2.11a.49.49,0,0,1,.65-.2.48.48,0,0,1,.2.65c-.38.72-.76,1.42-1.14,2.12A.5.5,0,0,1,547.42,118.61Z"/><path class="cls-6" d="M637,135.52c-9.39-3.58-.93-7.76,5-9.42,4.77-1.35,16.71-3.55,11.86-11.69-5.07-8.53-9.94,2-14,3.19-9,2.66.37-8.66,2.61-11.68,3.08-4.14,9.54-12.59,1.56-14-6.45-1.14-13.14,7.85-15.81,12.34-1.91,3.19-6.61,18.15-11.49,14.84-3.7-2.52.13-17.5-8.7-6.79-3.59,4.36-3,11.35-4.63,16.33-2.37,7.3-3.37,10.32-9.84,8.45-3.36-1-3.47-5.18-7.61-2.34-2.13,1.46-2.76,8.21-2.74,10.55.16,21.5,8.76,35.9,12.82,37.76,5.49,2.51,15.69-1.12,20.39-3.82,2.33-1.34,6.59-3.55,6.29-7-.34-3.82-6.23-3.27-6.45-5.51-.62-6.35,11.07-.28,14.31-1.19,4.19-1.17,11.13-8.66,6.74-12.62-.46-.41-18.72-1.73-8.27-7.55,5.78-3.22,12,5.72,17.57-.63C654.67,135.66,640.56,136.86,637,135.52Z"/><path class="cls-7" d="M635.48,138.9a42.13,42.13,0,0,0-12.6-3.62c3.09-3.86,6.33-7.68,8.68-12,.67-1.21-1.31-2-2-.84-.29.52-.61,1-.92,1.54a13.58,13.58,0,0,1,.19-4.32,27.57,27.57,0,0,1,2.4-7.6,1.07,1.07,0,0,0-2-.84,29.4,29.4,0,0,0-2.71,9.79c-.12,1.73-.22,3.6.78,5-3.32,4.93-7.46,9.47-10.93,14.25a20.92,20.92,0,0,1-3.07-7.57c-.54-3-.17-6.11-.49-9.15a1.07,1.07,0,0,0-2.13.26c.38,3.67,0,7.27.87,10.88a24.14,24.14,0,0,0,3.49,7.46,132.35,132.35,0,0,0-10.68,18.07c-1,2.1-1.92,4.24-2.81,6.39a39.94,39.94,0,0,1-4.81-9.54,32.42,32.42,0,0,1-1.61-5.94c-.19-1.52,0-3-.63-4.38a1.07,1.07,0,0,0-2,.79c.73,1.77.48,4.06.95,5.94a53.09,53.09,0,0,0,1.63,5.39,42.4,42.4,0,0,0,5.38,10,1.09,1.09,0,0,1,.11.1c-1.5,3.72-3,7.46-4.63,11.1a1,1,0,0,0-.33.43,10.47,10.47,0,0,0-.58,1.47c-3,7.51-6,15-8.86,22.58-.49,1.28,1.48,2.14,2,.84,2.88-7.53,5.87-15,8.83-22.5,0,0,.05,0,.06-.09,1-2,1.83-4,2.67-6,3.9,1,8.24-.14,11.88-1.61a1.07,1.07,0,0,0-.8-2c-3.16,1.27-6.82,2.26-10.24,1.59,1.87-4.61,3.64-9.27,5.78-13.76.85-1.78,1.76-3.54,2.71-5.27a1.21,1.21,0,0,0,.22.15,31.51,31.51,0,0,0,16.75,2.13c1.36-.22,1.11-2.35-.26-2.13a29.32,29.32,0,0,1-15.65-2h0a161.86,161.86,0,0,1,9.7-14.77c.59-.81,1.21-1.61,1.83-2.41a.91.91,0,0,0,.8.57,39.61,39.61,0,0,1,12.18,3.47A1.07,1.07,0,0,0,635.48,138.9Z"/><path class="cls-5" d="M581.91,224.94c-3.56,2.92-8.15,6.63-11.86,9.33-4.83,3.53-4.83,7-.67,11.18,5.13,5.15,14.28,8,21.35,9.09,2.5.4,3,.22,3-2.62,0-2.09-.24-4,0-6.15.36-4.09,1-7.59,3.42-11,3.78-5.31,4.12,1.29,3,4.35A35.19,35.19,0,0,0,598,250.42c0,6.63,21.58-3.3,24.76-7.09-2.48-1.89-5.37-9.66-3.45-12.71,1.69-2.68,2.42.26,2.78,2,.43,2,.62,4,1.84,5.67,5,6.94,15.32-11.38,17.27-15.15,2.56-5,5.51-5.69,10.67-5.9-3.66-4.82-9-11.76-15.46-12-3.13-.12-5.8,2.11-8.26,3.73-1.69,1.11-7.26,3.93-4.29-.29,2.08-2.94,6.06-3.92,8.11-7-1.67-2.09-7.43-5.9-10.21-5.28-3.34.74-4.35,7.28-6.46,9.54-2.35-4,2.18-8,3.75-11.29-4.39-3.17-13.29-7.06-19-5.52-8.35,2.25-.57,13,1,14.85,1.16,1.32,3,3.71-.13,2.67-2.74-.91-6.27-7-7.41-9.58-.55-1.27-.65-4.9-1.82-5.69-1.33-.91-23.54,9-26,16.32C563.05,215.38,575.43,224,581.91,224.94Z"/><path class="cls-8" d="M674.2,150.51c-9.48,3.69-19.18,5.91-28.06,11.08a217.89,217.89,0,0,0-24.58,16.72c-7.15,5.62-14,11.59-21.19,17.18C592,202,586.08,210,578.91,217.63c-1.15,1.23-3.17-.44-2-1.68,6.5-7,11.87-14.47,19.32-20.52,7.92-6.42,15.82-13,23.84-19.26a212.45,212.45,0,0,1,25.63-17.32c8.71-5,18.34-7.2,27.63-10.81a1.31,1.31,0,0,1,.89,2.47Z"/><path class="cls-8" d="M672.51,149.79c2-.9,5.63-.57,7.28,1,1.94,1.8.16,3.55-1.94,4-2.34.44-4.75-.44-7-.88s-4.9.06-7.11-.71c1.35-1.06,3.93-1.7,5.57-2.12s3.37-1.31,5.08-1.77"/><path class="cls-8" d="M668.32,151.58c3.61-1.27,8.93-.86,11.45-4.37,1.65-2.29,1.07-4.37-1.87-4.62-2.23-.19-4,1.28-5.47,2.81A45.27,45.27,0,0,0,667.1,152"/><path class="cls-8" d="M658.37,153.82c1.31-4.18,2.83-9.48,6.86-12,2.52-1.57,3,1.5,2.39,3.25-1.41,4-5.31,7.37-8.84,9.47Z"/><path class="cls-8" d="M649,157.77c.8-5.28,1.64-12,6-15.75,2.74-2.36,3.9,1.25,3.49,3.47-1,5.08-5,9.89-8.88,13.1Z"/><path class="cls-8" d="M629,170.34c-.14-5.34-.48-12.07,3.19-16.56,2.28-2.81,4.06.54,4,2.81-.05,5.16-3.21,10.61-6.46,14.44Z"/><path class="cls-8" d="M612.91,182.94c-1.83-6.05-4.33-13.61-1.57-19.88,1.72-3.92,4.8-.66,5.49,1.93,1.56,5.9-.33,13.1-2.82,18.49Z"/><path class="cls-8" d="M635.63,165.29c1.73-5.9,3.74-13.41,9.29-17,3.47-2.22,4.21,2.12,3.39,4.6-1.87,5.64-7.22,10.43-12.08,13.42Z"/><path class="cls-8" d="M659.16,156c3.69,2.36,8.25,5.45,13,4.79,2.93-.41,1.34-3.08-.25-4-3.64-2.15-8.8-2.25-12.86-1.61Z"/><path class="cls-8" d="M637.49,164.17c4.78,1.39,10.76,3.29,15.68,1.05,3.07-1.39.47-3.79-1.58-4.3-4.66-1.18-10.32.38-14.54,2.39Z"/><path class="cls-8" d="M626.56,174.7c5.12,1.49,11.53,3.53,16.81,1.13,3.29-1.5.5-4.07-1.69-4.62-5-1.26-11.06.41-15.59,2.56Z"/><path class="cls-8" d="M615.16,183.39c6.84,1.71,15.39,4.07,22.62.65,4.52-2.14.89-5.39-2-6-6.68-1.41-15,1.1-21.16,4.17Z"/><path class="cls-8" d="M621.31,176.68c-1.18-3.28-2.95-6.13-3.07-9.69a12,12,0,0,1,3.23-8.21c.87-1,1.8-2.36,3.26-2.53,2.06-.24,1.2,2,.81,3.3a82.25,82.25,0,0,0-2,8.73c-.28,1.61-.59,3.11-1,4.64-.27,1-.27,3-.7,3.7"/><path class="cls-8" d="M628.41,187.61c-3.82,0-16.14,1.24-20.88,1.29-1.08.87-2.18,1.72-3.29,2.57,7.72,1.87,20.46,3.1,23.82,2.29,1.45-.34,4.47-1.6,5-3.09C634,188,630.08,187.59,628.41,187.61Z"/><path class="cls-8" d="M617.42,206.46c-4.59-1-19.67-3.05-25.35-4.32-1.54.74-3.1,1.44-4.67,2.14,8.72,4.42,23.62,9.46,27.87,9.45,1.84,0,5.8-.67,6.84-2.3C624,208.48,619.42,206.91,617.42,206.46Z"/><path class="cls-8" d="M601.55,192.78c-.61-2.05-5.86-8.15-3.58-19.36.32-1.59.9-3.68,2.59-4.3,2.36-.85,2.53,1.78,2.6,3.45.12,3.3-.3,15.82,0,18.94"/><path class="cls-8" d="M595.3,198.37c2.31.66,4.61,2.1,7,2.87,2.57.83,16.82,3.25,21.31,2.32,2-.4,5.76-.26,6.25-2.74s-2.46-3.9-4.34-4.52c-4.37-1.44-25,0-30.3,1.13"/><path class="cls-8" d="M593.39,199.2c-5.41-7.69-7.56-23.6-6.24-25.21,2.86-3.5,6.48,1.95,7.19,4.6,1.6,5.95.15,19.95-.84,20.15"/><path class="cls-6" d="M46.84,139.11c9.4-3.57.93-7.75-5-9.42C37.1,128.35,25.16,126.15,30,118c5.08-8.53,9.94,2,14,3.19,9,2.66-.37-8.67-2.61-11.68-3.07-4.14-9.53-12.59-1.56-14,6.46-1.14,13.14,7.85,15.82,12.33,1.91,3.2,6.6,18.16,11.48,14.84,3.7-2.51-.13-17.49,8.7-6.78,3.59,4.35,3,11.35,4.63,16.33,2.37,7.3,3.37,10.32,9.84,8.45,3.36-1,3.47-5.19,7.61-2.34,2.13,1.46,2.76,8.2,2.75,10.54-.17,21.51-8.77,35.91-12.82,37.77-5.49,2.51-15.7-1.12-20.39-3.82-2.34-1.34-6.6-3.56-6.3-7,.34-3.82,6.23-3.27,6.45-5.51.62-6.35-11.07-.28-14.31-1.19-4.19-1.17-11.13-8.66-6.73-12.62.45-.41,18.72-1.73,8.27-7.55-5.79-3.22-12,5.71-17.58-.63C29.21,139.26,43.32,140.45,46.84,139.11Z"/><path class="cls-7" d="M48.4,142.5A41.92,41.92,0,0,1,61,138.88c-3.09-3.86-6.33-7.69-8.68-12-.66-1.21,1.31-2,2-.85.29.53.61,1,.92,1.55a13.29,13.29,0,0,0-.19-4.32,27.57,27.57,0,0,0-2.4-7.6,1.07,1.07,0,0,1,2-.84,29.4,29.4,0,0,1,2.71,9.79c.12,1.73.22,3.6-.78,5,3.32,4.94,7.46,9.48,10.93,14.26a21,21,0,0,0,3.07-7.57c.55-3,.18-6.11.49-9.16a1.07,1.07,0,0,1,2.13.27c-.38,3.67,0,7.27-.87,10.88a24.24,24.24,0,0,1-3.49,7.46,133.45,133.45,0,0,1,10.69,18.07c1,2.1,1.92,4.24,2.8,6.39a39.94,39.94,0,0,0,4.81-9.54,31.85,31.85,0,0,0,1.61-5.94c.2-1.52,0-2.95.63-4.39a1.07,1.07,0,0,1,2,.8c-.73,1.76-.48,4.06-.94,5.94a55.82,55.82,0,0,1-1.64,5.39,42.14,42.14,0,0,1-5.38,10,.57.57,0,0,1-.11.11c1.5,3.72,3,7.45,4.63,11.09a1.09,1.09,0,0,1,.33.44,10.33,10.33,0,0,1,.58,1.46c3,7.52,6,15,8.86,22.59.49,1.28-1.48,2.13-2,.84-2.87-7.53-5.86-15-8.83-22.51,0,0,0,0-.06-.08-1-2-1.83-4-2.67-6-3.9,1-8.24-.15-11.88-1.61a1.07,1.07,0,0,1,.8-2c3.16,1.27,6.83,2.26,10.25,1.59-1.88-4.61-3.65-9.27-5.79-13.76-.85-1.78-1.76-3.54-2.71-5.27a1.21,1.21,0,0,1-.22.15,31.51,31.51,0,0,1-16.75,2.13c-1.36-.22-1.1-2.35.27-2.13a29.21,29.21,0,0,0,15.64-2h0a161.86,161.86,0,0,0-9.7-14.77c-.59-.81-1.21-1.61-1.83-2.41a.88.88,0,0,1-.8.56,39.65,39.65,0,0,0-12.17,3.48A1.07,1.07,0,0,1,48.4,142.5Z"/><path class="cls-5" d="M102,228.54c3.57,2.92,8.15,6.62,11.86,9.33,4.83,3.53,4.83,7,.67,11.17-5.13,5.15-14.28,8-21.35,9.09-2.5.4-3,.23-3-2.61,0-2.1.24-4,.05-6.16-.36-4.08-1-7.58-3.41-11-3.79-5.31-4.13,1.29-3,4.35A34.87,34.87,0,0,1,85.87,254c0,6.62-21.58-3.3-24.75-7.1,2.47-1.88,5.37-9.66,3.44-12.7-1.69-2.68-2.42.26-2.78,2-.43,2.05-.62,4-1.84,5.68-5,6.94-15.32-11.38-17.27-15.16-2.56-5-5.51-5.68-10.67-5.89,3.67-4.82,9-11.76,15.46-12,3.13-.12,5.8,2.1,8.26,3.72,1.7,1.12,7.27,3.94,4.29-.28-2.08-2.94-6.06-3.92-8.11-7,1.67-2.08,7.43-5.9,10.21-5.27,3.34.74,4.35,7.28,6.46,9.54,2.36-4-2.18-8-3.74-11.3,4.39-3.16,13.29-7,19-5.51,8.35,2.24.57,13.05-1,14.85-1.16,1.32-3,3.71.13,2.67,2.74-.91,6.27-7,7.41-9.58.56-1.27.65-4.9,1.82-5.7,1.33-.9,23.54,9,26,16.33C120.83,219,108.45,227.57,102,228.54Z"/><path class="cls-8" d="M8.52,159.69c9.49,3.68,19.19,5.9,28.06,11.08a214.8,214.8,0,0,1,24.58,16.72c7.16,5.62,14,11.58,21.2,17.18,8.38,6.53,14.29,14.46,21.46,22.14,1.15,1.23,3.17-.44,2-1.68-6.49-7-11.86-14.47-19.32-20.52-7.91-6.43-15.81-13-23.83-19.26A214.12,214.12,0,0,0,37.05,168c-8.71-5-18.34-7.19-27.63-10.8a1.32,1.32,0,0,0-.9,2.47Z"/><path class="cls-8" d="M10.22,159c-2-.9-5.63-.57-7.28,1-1.94,1.81-.17,3.56,1.93,4,2.34.45,4.75-.43,7-.87s4.9.06,7.11-.71c-1.36-1.06-3.93-1.7-5.58-2.12s-3.36-1.31-5.07-1.77"/><path class="cls-8" d="M14.4,160.76c-3.6-1.27-8.92-.86-11.44-4.37-1.65-2.29-1.08-4.37,1.87-4.63,2.23-.19,4,1.29,5.47,2.82a44.68,44.68,0,0,1,5.32,6.63"/><path class="cls-8" d="M24.36,163c-1.31-4.17-2.83-9.47-6.87-12-2.51-1.57-3,1.5-2.38,3.25,1.41,4,5.3,7.36,8.83,9.47Z"/><path class="cls-8" d="M33.74,167c-.79-5.28-1.63-12-6-15.75-2.74-2.36-3.91,1.25-3.49,3.47,1,5.07,5,9.89,8.88,13.09Z"/><path class="cls-8" d="M53.75,179.52c.14-5.34.48-12.07-3.19-16.57-2.29-2.8-4.07.55-4,2.82,0,5.16,3.21,10.61,6.45,14.44Z"/><path class="cls-8" d="M69.82,192.11c1.83-6,4.33-13.6,1.57-19.88-1.73-3.91-4.81-.65-5.49,1.94-1.56,5.9.33,13.1,2.82,18.48Z"/><path class="cls-8" d="M47.09,174.47c-1.73-5.9-3.73-13.41-9.29-17-3.46-2.22-4.21,2.12-3.38,4.59,1.87,5.64,7.21,10.43,12.08,13.43Z"/><path class="cls-8" d="M23.56,165.19c-3.68,2.37-8.25,5.46-12.95,4.8-2.94-.41-1.34-3.08.25-4,3.64-2.16,8.79-2.25,12.86-1.61Z"/><path class="cls-8" d="M45.24,173.35c-4.78,1.39-10.76,3.29-15.68,1.05-3.07-1.39-.47-3.79,1.57-4.31,4.67-1.17,10.32.38,14.55,2.4Z"/><path class="cls-8" d="M56.17,183.88c-5.12,1.49-11.54,3.53-16.81,1.13-3.29-1.5-.51-4.07,1.69-4.62,5-1.26,11.06.4,15.59,2.56Z"/><path class="cls-8" d="M67.56,192.57c-6.83,1.7-15.38,4.07-22.62.64-4.51-2.13-.88-5.38,2.05-6,6.68-1.41,14.94,1.09,21.16,4.16Z"/><path class="cls-8" d="M61.42,185.86c1.17-3.28,2.94-6.13,3.07-9.69A12,12,0,0,0,61.26,168c-.88-1-1.8-2.36-3.27-2.53-2.05-.24-1.19,2-.8,3.3a84.79,84.79,0,0,1,2,8.73c.28,1.61.59,3.11,1,4.64.27,1,.26,3,.7,3.7"/><path class="cls-8" d="M54.32,196.79c3.82,0,16.14,1.24,20.87,1.29,1.08.87,2.19,1.72,3.3,2.57-7.72,1.87-20.46,3.09-23.82,2.29-1.45-.34-4.47-1.61-5-3.09C48.74,197.16,52.65,196.77,54.32,196.79Z"/><path class="cls-8" d="M65.31,215.64c4.58-1,19.66-3.06,25.35-4.32,1.54.73,3.09,1.44,4.67,2.14-8.72,4.41-23.62,9.46-27.88,9.45-1.83,0-5.79-.67-6.84-2.3C58.74,217.66,63.31,216.09,65.31,215.64Z"/><path class="cls-8" d="M81.17,202c.62-2.05,5.86-8.15,3.59-19.37-.33-1.59-.9-3.67-2.6-4.29-2.35-.86-2.53,1.78-2.59,3.45-.12,3.3.3,15.82,0,18.94"/><path class="cls-8" d="M87.43,207.55c-2.31.66-4.62,2.1-7,2.87-2.57.82-16.82,3.24-21.32,2.32-2-.4-5.76-.26-6.24-2.74s2.45-3.9,4.34-4.52c4.37-1.44,25,0,30.3,1.12"/><path class="cls-8" d="M89.34,208.38c5.41-7.69,7.56-23.6,6.24-25.22-2.86-3.5-6.48,2-7.19,4.61-1.6,5.95-.15,19.95.84,20.15"/><rect class="cls-7" x="183.21" y="118.41" width="310.06" height="206.62"/><rect class="cls-9" x="183.21" y="118.41" width="310.06" height="12.98"/><path class="cls-6" d="M470.74,95.87h-265a22.54,22.54,0,0,0-22.54,22.54H493.28A22.54,22.54,0,0,0,470.74,95.87Z"/><rect class="cls-7" x="82.59" y="159.91" width="503.32" height="165.11"/><path class="cls-10" d="M233.89,173.73H434.61A151.3,151.3,0,0,1,585.91,325v0a0,0,0,0,1,0,0H82.59a0,0,0,0,1,0,0v0a151.3,151.3,0,0,1,151.3-151.3Z"/><rect class="cls-9" x="82.59" y="159.91" width="503.32" height="13.81"/><path class="cls-6" d="M585.91,159.91H82.59A13.92,13.92,0,0,1,96.51,146H572a13.92,13.92,0,0,1,13.92,13.92Z"/><rect class="cls-5" x="219.69" y="182.56" width="15.84" height="142.47"/><rect class="cls-11" x="229.34" y="182.56" width="6.19" height="142.47"/><rect class="cls-5" x="251.42" y="182.56" width="15.84" height="142.47"/><rect class="cls-11" x="259.34" y="182.56" width="7.92" height="142.47"/><rect class="cls-5" x="407.84" y="182.56" width="15.84" height="142.47"/><rect class="cls-11" x="407.84" y="182.56" width="7.92" height="142.47"/><rect class="cls-5" x="439.57" y="182.56" width="15.84" height="142.47"/><rect class="cls-11" x="439.57" y="182.56" width="7.92" height="142.47"/><path class="cls-5" d="M463,151.28v33.41a10.74,10.74,0,0,1-10.74,10.74h-230a10.74,10.74,0,0,1-10.74-10.74V151.28a10.09,10.09,0,0,1,10.09-10.09H452.93a8.62,8.62,0,0,1,1.14.07A10.1,10.1,0,0,1,463,151.28Z"/><path class="cls-11" d="M463,151.28v33.41a10.74,10.74,0,0,1-10.74,10.74h-230a10.73,10.73,0,0,1-9.71-6.15l241.53-48A10.1,10.1,0,0,1,463,151.28Z"/><path class="cls-5" d="M122.05,195.43h-5.67A18.76,18.76,0,0,0,97.62,214.2v58.51h43.19V214.2A18.76,18.76,0,0,0,122.05,195.43Zm-2.84,2.95A18.77,18.77,0,0,1,138,217.15V235H100.45V217.15A18.76,18.76,0,0,1,119.21,198.38Zm-18.76,71.38V238.1H138v31.66Z"/><path class="cls-12" d="M138,217.15V235H100.45V217.15a18.77,18.77,0,0,1,37.53,0Z"/><path class="cls-13" d="M138,217.15V235H100.45a29.6,29.6,0,0,1,29.61-29.61h3.76A18.59,18.59,0,0,1,138,217.15Z"/><rect class="cls-12" x="100.45" y="238.1" width="37.53" height="31.66"/><path class="cls-13" d="M132.11,238.1H138a0,0,0,0,1,0,0v31.66a0,0,0,0,1,0,0H100.45a0,0,0,0,1,0,0v0A31.66,31.66,0,0,1,132.11,238.1Z"/><rect class="cls-5" x="94.74" y="265.67" width="48.96" height="8.96"/><path class="cls-5" d="M184.52,195.43h-5.66a18.77,18.77,0,0,0-18.77,18.77v58.51h43.2V214.2A18.77,18.77,0,0,0,184.52,195.43Zm-2.83,2.95a18.77,18.77,0,0,1,18.77,18.77V235H162.93V217.15A18.76,18.76,0,0,1,181.69,198.38Zm-18.76,71.38V238.1h37.53v31.66Z"/><path class="cls-12" d="M200.46,217.15V235H162.92V217.15a18.77,18.77,0,0,1,37.54,0Z"/><path class="cls-13" d="M200.46,217.15V235H162.92a29.6,29.6,0,0,1,29.62-29.61h3.75A18.6,18.6,0,0,1,200.46,217.15Z"/><rect class="cls-12" x="162.93" y="238.1" width="37.53" height="31.66"/><path class="cls-13" d="M194.59,238.1h5.87a0,0,0,0,1,0,0v31.66a0,0,0,0,1,0,0H162.93a0,0,0,0,1,0,0v0a31.66,31.66,0,0,1,31.66-31.66Z"/><rect class="cls-5" x="157.21" y="265.67" width="48.96" height="8.96"/><path class="cls-5" d="M490.33,195.43h-5.67A18.76,18.76,0,0,0,465.9,214.2v58.51h43.19V214.2A18.76,18.76,0,0,0,490.33,195.43Zm-2.83,2.95a18.76,18.76,0,0,1,18.76,18.77V235H468.73V217.15A18.77,18.77,0,0,1,487.5,198.38Zm-18.77,71.38V238.1h37.53v31.66Z"/><path class="cls-12" d="M506.26,217.15V235H468.73V217.15a18.77,18.77,0,0,1,37.53,0Z"/><path class="cls-13" d="M506.26,217.15V235H468.73a29.6,29.6,0,0,1,29.61-29.61h3.76A18.59,18.59,0,0,1,506.26,217.15Z"/><rect class="cls-12" x="468.73" y="238.1" width="37.53" height="31.66"/><path class="cls-13" d="M500.39,238.1h5.87a0,0,0,0,1,0,0v31.66a0,0,0,0,1,0,0H468.73a0,0,0,0,1,0,0v0a31.66,31.66,0,0,1,31.66-31.66Z"/><rect class="cls-5" x="463.02" y="265.67" width="48.96" height="8.96"/><path class="cls-5" d="M552.81,195.43h-5.67a18.77,18.77,0,0,0-18.77,18.77v58.51h43.2V214.2A18.76,18.76,0,0,0,552.81,195.43ZM550,198.38a18.77,18.77,0,0,1,18.77,18.77V235H531.21V217.15A18.76,18.76,0,0,1,550,198.38Zm-18.76,71.38V238.1h37.53v31.66Z"/><path class="cls-12" d="M568.74,217.15V235H531.21V217.15a18.77,18.77,0,0,1,37.53,0Z"/><path class="cls-13" d="M568.74,217.15V235H531.21a29.58,29.58,0,0,1,29.61-29.61h3.75A18.6,18.6,0,0,1,568.74,217.15Z"/><rect class="cls-12" x="531.21" y="238.1" width="37.53" height="31.66"/><path class="cls-13" d="M562.87,238.1h5.87a0,0,0,0,1,0,0v31.66a0,0,0,0,1,0,0H531.21a0,0,0,0,1,0,0v0a31.66,31.66,0,0,1,31.66-31.66Z"/><rect class="cls-5" x="525.49" y="265.67" width="48.96" height="8.96"/><text class="cls-14" transform="translate(262.39 184.45)">BANK</text><path class="cls-5" d="M341.36,198.2h0a42.9,42.9,0,0,0-42.9,42.9v84.39h6.8V242.11a36.1,36.1,0,0,1,33.05-36V325.49h6.62V206.18a36.1,36.1,0,0,1,32.53,35.93v83.38h6.81V241.1A42.91,42.91,0,0,0,341.36,198.2Z"/><path class="cls-12" d="M344.93,206.18V325.49h32.53V242.11A36.1,36.1,0,0,0,344.93,206.18Z"/><path class="cls-13" d="M377.46,242.1v7.65l-32.53,13.91V224.91c0-10.9,13-16.67,21-9.24A36,36,0,0,1,377.46,242.1Z"/><polygon class="cls-13" points="344.93 285.67 377.46 271.76 377.46 325.49 344.93 325.49 344.93 285.67"/><path class="cls-12" d="M305.26,242.11v83.38h33.05V206.15A36.1,36.1,0,0,0,305.26,242.11Z"/><path class="cls-13" d="M338.31,226.9v39.58l-33.05,14.13V242.1A35.93,35.93,0,0,1,315,217.51C323.29,208.56,338.31,214.68,338.31,226.9Z"/><polygon class="cls-13" points="305.26 302.62 338.31 288.49 338.31 325.49 305.26 325.49 305.26 302.62"/><rect class="cls-5" x="72.82" y="331.27" width="537.09" height="16.32"/><path class="cls-6" d="M601.75,324.07H81a8.16,8.16,0,0,0-8.16,8.16H609.91A8.16,8.16,0,0,0,601.75,324.07Z"/><path class="cls-15" d="M434.84,272s9,12.06,20.87,13.54l-1.59,8.11s-19.56-9.75-21.29-18.94Z"/><path class="cls-6" d="M456.83,386.4c1.56,4.22-2.1,4.25-10.31,4.17-1.14,0-1.92-1.23,0-1.81l6-2.46s3.54-.08,4.14,0Z"/><path class="cls-16" d="M457.22,277.62a66.32,66.32,0,0,1,1.95,8.91c.26,2-4.73,4.27-4.93,4.2a.63.63,0,0,1-.42-.64c.1-2,0-5.66-1.58-8.43Z"/><path class="cls-17" d="M459.84,275.3c-.58-3.31-2.85-7.08-5.24-7.39-3.13-.41-5.86.47-6.7,8.58a10,10,0,0,0-.72,1.72c0,.28.42.39.71.45a.09.09,0,0,0,.07,0c.51,2.48,2.26,5.24,4.64,5.77s5.12-1.86,6.51-4.44C460.14,279.74,460.16,275.13,459.84,275.3Z"/><path class="cls-6" d="M450.3,279.93a2.27,2.27,0,0,0,1-2.05.16.16,0,0,0-.31,0,2.2,2.2,0,0,1-1.92,2.2.16.16,0,0,0-.14.17.16.16,0,0,0,.18.14A3.07,3.07,0,0,0,450.3,279.93Z"/><path class="cls-6" d="M449.9,276.66a.58.58,0,0,1-.58.6.59.59,0,0,1,0-1.18A.58.58,0,0,1,449.9,276.66Z"/><path class="cls-6" d="M450.73,275h0a.17.17,0,0,0,.06-.22,1.31,1.31,0,0,0-1.74-.64.15.15,0,0,0-.07.21.15.15,0,0,0,.21.08,1,1,0,0,1,1.32.5A.16.16,0,0,0,450.73,275Z"/><path class="cls-6" d="M462.38,274.7a9.06,9.06,0,0,0-5.75-7.72,9.15,9.15,0,0,0-3.6-.59c-3.15.07-8.23,1.24-8.6,5.65-.06.64.29,1.69.89,1.84,0,0-.2-1.92.72-2.42a1.7,1.7,0,0,0,.81,1.79,4.42,4.42,0,0,0,2,.58,2.5,2.5,0,0,1,.81-1.82,4,4,0,0,0,2.19,2.07,5.82,5.82,0,0,1,1.59.86,4.27,4.27,0,0,1,1,2.9,1.41,1.41,0,0,1,1.59-.56,1.36,1.36,0,0,1,.89,1.41,2,2,0,0,1-1.21,1.41c-.19.08-.41.18-.47.38a.83.83,0,0,0,0,.31c.06.26.13.52.19.78a1.84,1.84,0,0,0,.24.64,1.81,1.81,0,0,0,1.09.52c1.75.43,3.21-.9,3.88-1.68a6.56,6.56,0,0,0,1.29-2.73A13.6,13.6,0,0,0,462.38,274.7Z"/><path class="cls-17" d="M442.3,327c-1.49.52-3.16.85-4.17.27a.38.38,0,0,1,0-.67c2.72-1.52,4.22-2.26,6.1-3.41a2.47,2.47,0,0,1,3.24-.75l.26.07-.7,1A9.84,9.84,0,0,1,442.3,327Z"/><path class="cls-18" d="M462.28,286.3c5.55,5.63,1.69,23.81,8.89,37.5H452.55c-2.82-17.39-5-22.46-5.57-28.76a.76.76,0,0,1,0-.15,9.21,9.21,0,0,1,8.12-9.84l2.56-.31A5.51,5.51,0,0,1,462.28,286.3Z"/><circle class="cls-8" cx="428.2" cy="300.83" r="27.51"/><path class="cls-19" d="M403.57,300.83a24.63,24.63,0,0,0,24.62,24.63,23.56,23.56,0,0,0,3.48-.25,24.63,24.63,0,0,0,21.11-23c0-.46,0-.92,0-1.39a24.63,24.63,0,0,0-24.63-24.63l-.81,0a24.64,24.64,0,0,0-23.47,20.58A23.32,23.32,0,0,0,403.57,300.83Z"/><circle class="cls-19" cx="428.2" cy="300.83" r="22.43" transform="translate(-94.6 323.96) rotate(-37.62)"/><path class="cls-17" d="M431.58,275c-.77,2-.55,4,.48,4.39s2.49-.94,3.26-3,.55-4-.48-4.39S432.35,273,431.58,275Z"/><path class="cls-8" d="M426.71,316.91c-5.84-.5-10-3.62-10.13-9.05h6.78a4,4,0,0,0,3.35,3.94v-8.64c-4.66-1.17-10.13-2.48-10.13-9.18,0-5.33,4.25-8.81,10.13-9.27v-3.66h2.89v3.66c5.65.46,9.45,3.49,9.86,8.87h-6.83a4.16,4.16,0,0,0-3-3.67v8.55c4.7,1.22,10.22,2.44,10.22,9.13,0,4.62-3.62,8.91-10.22,9.36v3.67h-2.89Zm0-19.31v-7.82a3.74,3.74,0,0,0-3.53,3.89C423.18,295.79,424.63,296.88,426.71,297.6ZM429.6,304v7.91a4,4,0,0,0,3.66-4C433.26,305.74,431.72,304.7,429.6,304Z"/><g class="cls-20"><path class="cls-8" d="M415.05,282.65l31,31.75a22.38,22.38,0,0,0,4.54-12.31L427.47,278.4A22.27,22.27,0,0,0,415.05,282.65Z"/><path class="cls-8" d="M406.08,297.15,431.37,323a22.23,22.23,0,0,0,11.47-5.2l-31.28-32A22.31,22.31,0,0,0,406.08,297.15Z"/></g><path class="cls-21" d="M418,271.92l-.91,1.66a1.38,1.38,0,0,1-.53.54l-1.66.9a1.35,1.35,0,0,0,0,2.36l1.66.91a1.31,1.31,0,0,1,.53.54l.91,1.65a1.34,1.34,0,0,0,2.36,0l.91-1.65a1.31,1.31,0,0,1,.53-.54l1.66-.91a1.35,1.35,0,0,0,0-2.36l-1.66-.9a1.38,1.38,0,0,1-.53-.54l-.91-1.66A1.35,1.35,0,0,0,418,271.92Z"/><path class="cls-21" d="M410.27,280.2l-.61,1.11a.83.83,0,0,1-.36.36l-1.11.61a.9.9,0,0,0,0,1.58l1.11.61a.83.83,0,0,1,.36.36l.61,1.11a.9.9,0,0,0,1.58,0l.61-1.11a1,1,0,0,1,.36-.36l1.11-.61a.9.9,0,0,0,0-1.58l-1.11-.61a1,1,0,0,1-.36-.36l-.61-1.11A.9.9,0,0,0,410.27,280.2Z"/><path class="cls-22" d="M443.48,322.62c6.6-10.5,11.29-22.24,9.66-32.47a4.22,4.22,0,0,1,1.2-3.66h0a4.21,4.21,0,0,1,6.88,1.46h0a16.91,16.91,0,0,1,.83,9.52c-1.76,8.77-8.54,18.63-15.05,26.77Z"/><path class="cls-23" d="M471.17,323.8h-18l-2.7,9.64c-2.59,9.21-3.92,30.07-1.85,39.41l4,13.49h4.11l-1-6.43c-1.25-13.34,3.21-37.87,10.68-49Z"/><path class="cls-24" d="M457.81,323.8c7.61,19.24,17.51,46.27,34,56.55h4.57c-14.64-15.53-24.65-42-25.24-56.55Z"/><path class="cls-6" d="M496.41,380.35h-4.57l-1.49,4.36a4.49,4.49,0,0,1-2.63,2.76,3.58,3.58,0,0,0-.73.37,1,1,0,0,0,.6,1.77H490a4.47,4.47,0,0,0,3.71-2l2.68-4A2.54,2.54,0,0,0,496.41,380.35Z"/><path class="cls-6" d="M156.57,385.37c-1.56,4.21,2.11,4.25,10.31,4.16,1.14,0,1.93-1.22,0-1.81l-6-2.46s-3.54-.07-4.14,0Z"/><path class="cls-25" d="M142.23,322.76h18l2.71,9.65c2.58,9.21,3.92,30.07,1.85,39.4l-4,13.49h-4.12l1-6.43c1.26-13.34-3.2-37.86-10.68-49Z"/><path class="cls-26" d="M155.59,322.76C148,342,138.08,369,121.57,379.32H117c14.64-15.53,24.66-42,25.24-56.56Z"/><path class="cls-6" d="M117,379.32h4.58l1.48,4.36a4.48,4.48,0,0,0,2.63,2.75,3.63,3.63,0,0,1,.73.38,1,1,0,0,1-.6,1.76h-2.43a4.43,4.43,0,0,1-3.7-2l-2.69-4A2.54,2.54,0,0,1,117,379.32Z"/><path class="cls-27" d="M156.18,276.59a68.11,68.11,0,0,0-2,8.91c-.25,1.95,4.73,4.27,4.94,4.19a.64.64,0,0,0,.42-.63c-.11-2,0-5.66,1.58-8.43Z"/><path class="cls-28" d="M154.3,279c1.39,2.57,4.2,4.94,6.5,4.43s4.13-3.29,4.64-5.76h.07c.3-.06.69-.17.71-.45s-.31-.49-.64-.65a1.51,1.51,0,0,0,0-.52c-.84-8.12-3.63-9.55-6.76-9.13-2.39.31-4.66,4.08-5.23,7.39C153.24,274.09,153.26,278.7,154.3,279Z"/><path class="cls-6" d="M163.1,278.9a2.31,2.31,0,0,1-1-2,.16.16,0,0,1,.16-.16.17.17,0,0,1,.16.17,2.18,2.18,0,0,0,1.92,2.19.16.16,0,0,1,.13.18.15.15,0,0,1-.18.13A3.22,3.22,0,0,1,163.1,278.9Z"/><path class="cls-6" d="M163.5,275.63a.6.6,0,0,0,.58.6.59.59,0,0,0,.59-.59.59.59,0,1,0-1.17,0Z"/><path class="cls-6" d="M162.67,274h0a.15.15,0,0,1-.07-.21,1.31,1.31,0,0,1,1.74-.64.16.16,0,0,1,.08.21.15.15,0,0,1-.21.07,1,1,0,0,0-1.33.51A.16.16,0,0,1,162.67,274Z"/><path class="cls-6" d="M165.94,267.91c-1.7-.38-3.21-1.55-5-1.73-3.58-.36-8.08,1.42-8.94,5.24a8.35,8.35,0,0,0,.4,5.27c2.16,4.59,4.36,5.3,4.36,5.3a13,13,0,0,0,.16-2.2c-.15-.42-.76-.86-1-1.29a3.34,3.34,0,0,1-.48-2.3,1.18,1.18,0,0,1,2.05-.61,8.65,8.65,0,0,1,.81,2.44c.33.13.78-1.12,1-2.3a2.8,2.8,0,0,1,2.16-2.27c2.2-.45,5.28-1.56,6.16-4.24C168,268.12,166.78,268.1,165.94,267.91Z"/><path class="cls-29" d="M151.12,285.26c-5.55,5.64-1.68,23.81-8.89,37.5h18.63c2.81-17.39,4.95-22.45,5.56-28.76,0-.05,0-.1,0-.15a9.21,9.21,0,0,0-8.12-9.83l-2.56-.32A5.56,5.56,0,0,0,151.12,285.26Z"/><polygon class="cls-6" points="218.05 282.31 218.82 329.15 174.18 331.7 105.8 335.6 105.02 288.76 218.05 282.31"/><path class="cls-30" d="M214.34,294l.4,24a12.82,12.82,0,0,0-7.62,8.53l-89.74,5.12a11.43,11.43,0,0,0-7.88-7.64l-.39-24a12.8,12.8,0,0,0,7.61-8.53l89.74-5.12A11.43,11.43,0,0,0,214.34,294Z"/><path class="cls-6" d="M162.18,318.6c-3.42-.1-5.88-1.78-6-4.94l4-.22a2.23,2.23,0,0,0,2,2.18l-.08-5c-2.74-.53-6-1.11-6-5-.05-3.11,2.4-5.28,5.84-5.74l0-2.14,1.7-.1,0,2.14c3.32.08,5.57,1.72,5.86,4.84l-4,.23a2.3,2.3,0,0,0-1.81-2l.09,5c2.76.55,6,1.08,6.06,5,.05,2.69-2,5.32-5.88,5.8l0,2.14-1.69.09ZM162,307.34l-.07-4.57a2.3,2.3,0,0,0-2,2.39C159.91,306.4,160.77,307,162,307.34Zm1.76,3.62.08,4.61a2.48,2.48,0,0,0,2.1-2.47C165.91,311.86,165,311.31,163.75,311Z"/><path class="cls-30" d="M113,293.65a2.08,2.08,0,0,1-2,2.1,1.89,1.89,0,0,1-2-1.87,2.08,2.08,0,0,1,1.95-2.1A1.89,1.89,0,0,1,113,293.65Z"/><path class="cls-30" d="M113.58,329.81a2.08,2.08,0,0,1-2,2.1,1.9,1.9,0,0,1-2-1.87,2.11,2.11,0,0,1,2-2.1A1.9,1.9,0,0,1,113.58,329.81Z"/><path class="cls-30" d="M214.24,287.87a2.08,2.08,0,0,1-2,2.09,1.88,1.88,0,0,1-2-1.86,2.09,2.09,0,0,1,2-2.1A1.9,1.9,0,0,1,214.24,287.87Z"/><path class="cls-30" d="M214.84,324a2.1,2.1,0,0,1-2,2.1,1.9,1.9,0,0,1-2-1.87,2.09,2.09,0,0,1,2-2.1A1.9,1.9,0,0,1,214.84,324Z"/><path class="cls-6" d="M162.61,291.88a18.2,18.2,0,0,0-17.06,18.28,16.51,16.51,0,0,0,17.64,16.31,18.2,18.2,0,0,0,17.06-18.29A16.51,16.51,0,0,0,162.61,291.88Zm.55,32.91a14.9,14.9,0,0,1-15.92-14.72,16.44,16.44,0,0,1,15.4-16.52,14.92,14.92,0,0,1,15.93,14.73A16.44,16.44,0,0,1,163.16,324.79Z"/><path class="cls-6" d="M201.28,306.39a6.06,6.06,0,0,1-5.68,6.09,5.5,5.5,0,0,1-5.87-5.43,6.06,6.06,0,0,1,5.68-6.09A5.5,5.5,0,0,1,201.28,306.39Z"/><ellipse class="cls-6" cx="127.95" cy="310.58" rx="5.89" ry="5.66" transform="translate(-179.58 175.47) rotate(-43.89)"/><path class="cls-6" d="M134.08,324.36l-11.81.67a1.08,1.08,0,0,1-1.16-1.07h0a1.21,1.21,0,0,1,1.13-1.21l11.81-.67a1.08,1.08,0,0,1,1.16,1.07h0A1.21,1.21,0,0,1,134.08,324.36Z"/><path class="cls-6" d="M201.64,320.5l-11.81.67a1.08,1.08,0,0,1-1.16-1.07h0a1.21,1.21,0,0,1,1.13-1.21l11.81-.67a1.08,1.08,0,0,1,1.16,1.07h0A1.21,1.21,0,0,1,201.64,320.5Z"/><path class="cls-6" d="M133.67,299.29l-11.81.67a1.08,1.08,0,0,1-1.16-1.07h0a1.2,1.2,0,0,1,1.12-1.21l11.81-.67a1.09,1.09,0,0,1,1.16,1.07h0A1.2,1.2,0,0,1,133.67,299.29Z"/><path class="cls-6" d="M201.23,295.43l-11.81.68a1.09,1.09,0,0,1-1.16-1.08h0a1.19,1.19,0,0,1,1.12-1.2l11.81-.68a1.09,1.09,0,0,1,1.16,1.08h0A1.19,1.19,0,0,1,201.23,295.43Z"/><polygon class="cls-31" points="218.05 282.31 218.82 329.15 174.18 331.7 105.02 288.76 218.05 282.31"/><path class="cls-28" d="M171.1,326c1.49.51,3.16.84,4.17.27a.39.39,0,0,0,0-.68c-2.73-1.51-4.23-2.26-6.11-3.4a2.47,2.47,0,0,0-3.24-.76l-.25.07.7,1A9.83,9.83,0,0,0,171.1,326Z"/><path class="cls-32" d="M169.92,321.58c-6.6-10.49-11.28-22.24-9.66-32.46a4.25,4.25,0,0,0-1.19-3.67h0a4.23,4.23,0,0,0-6.89,1.46h0a17,17,0,0,0-.83,9.53c1.76,8.76,8.54,18.62,15.05,26.77Z"/><path class="cls-28" d="M172.87,287.18c0,2.23-1.14,4-2.54,4s-2.53-1.81-2.53-4,1.13-4,2.53-4S172.87,285,172.87,287.18Z"/><path class="cls-6" d="M292.29,271.6a47.25,47.25,0,0,1,1.23-8.78c.6-2.53,1.39-5.21.55-7.68-.78-2.3-2.78-3.82-4.68-5.19s-4.45-2.81-7-2.49a5.49,5.49,0,0,0-4.69,6.6c.3,1.4,1.14,2.67,1.22,4.09.1,1.85-1.06,3.48-2,5.09a11.22,11.22,0,0,0-1.48,4.21,6,6,0,0,0,1.06,4.26c1,1.32,2.67,2.09,3.45,3.56,1,1.82.24,4.05-.68,5.89s-2.05,3.75-1.85,5.8a6,6,0,0,0,4.75,4.92,11.8,11.8,0,0,0,7.12-.94,7,7,0,0,0,3.58-2.66c1.1-1.9.55-4.28.13-6.43A44,44,0,0,1,292.29,271.6Z"/><path class="cls-17" d="M304.34,304.42v0Z"/><path class="cls-17" d="M306,297.06c.06-.27,0-.06,0,0Z"/><path class="cls-17" d="M297.72,272.48a11.86,11.86,0,0,1-8.91-5.89l.82-1.37a14,14,0,0,0,1.23-2.66l.88-2.59,3.54,1.52a5.54,5.54,0,0,0,.13,4,2.83,2.83,0,0,0,1.32,1.45h0l2.11,1C302.28,272.39,297.72,272.48,297.72,272.48Z"/><path class="cls-17" d="M287.5,259.36c-.64-.89-.92-2.31-.13-2.73a1.55,1.55,0,0,1,.9-.1c-.56-3.08.21-7.1,2.19-8.14,2.6-1.36,5.49-1,8.84,5.8,1.32,2.69.67,6.39-1.78,8-1.85,1.18-5.07,0-7.11-1.78A2.78,2.78,0,0,1,287.5,259.36Z"/><path class="cls-6" d="M297.25,256.87l0,0c.29-.18.67-.45.59-.77s-1.11-.48-1.53-.48a.16.16,0,1,0,0,.32c.59,0,1.18.12,1.22.25s0,.13-.45.41a.16.16,0,0,0-.05.22A.16.16,0,0,0,297.25,256.87Z"/><path class="cls-6" d="M297.7,258.77l.27-.12a.19.19,0,0,0,.06-.25.17.17,0,0,0-.24-.07,2.52,2.52,0,0,1-3.3-.63.19.19,0,0,0-.26,0,.18.18,0,0,0,0,.25A2.8,2.8,0,0,0,297.7,258.77Z"/><path class="cls-6" d="M291.73,255.12a.18.18,0,0,0,.13-.15,1.15,1.15,0,0,1,1.23-1.07.18.18,0,0,0,.2-.16.2.2,0,0,0-.17-.2,1.51,1.51,0,0,0-1.63,1.38.2.2,0,0,0,.16.21Z"/><path class="cls-6" d="M296.07,252.65a.17.17,0,0,0,.17,0,1,1,0,0,1,1.37,0,.14.14,0,0,0,.21,0,.15.15,0,0,0,0-.21,1.27,1.27,0,0,0-1.8,0,.16.16,0,0,0,0,.22Z"/><path class="cls-6" d="M293.28,255.68a.52.52,0,0,0,.66.32.53.53,0,0,0,.32-.66.52.52,0,0,0-.67-.32A.51.51,0,0,0,293.28,255.68Z"/><path class="cls-6" d="M296.55,254.38a.53.53,0,0,0,.66.32.53.53,0,1,0-.35-1A.52.52,0,0,0,296.55,254.38Z"/><path class="cls-33" d="M288.69,266.76l.13-.18c2.38-.91,4.17,3.1,8,3.83a1.61,1.61,0,0,0,1.33-2.82.1.1,0,0,1-.05,0l.51.24a17.75,17.75,0,0,1,3.95,2.42,5.5,5.5,0,0,1,1.85,5.3L303,281a18,18,0,0,0-.06,7.27H292.74c-1-4.77-4.92-12.6-5.13-13.82-.08-.46-.15-.81-.22-1.09A7.8,7.8,0,0,1,288.69,266.76Z"/><path class="cls-17" d="M285.66,319.09h10.58c-.36,2.72-.75,5.53-1.15,8.25-.48,3.23-1,6.32-1.43,8.93a58.38,58.38,0,0,1-1.47,6.73,198.74,198.74,0,0,1-10.36,24.75c-.94-.57-1.83-1.06-2.78-1.66,3.55-5.14,4.43-22.09,7.67-23.16,0-1.12,0-3.56-.18-6.66C286.31,331.35,285.93,324.78,285.66,319.09Z"/><path class="cls-17" d="M307.53,326.78a60.93,60.93,0,0,1-.68,9.49c-1.8,14.14-6.49,35.94-6.54,36.09-1.12-.1-2.24-.21-3.36-.29,1.27-5.68.79-27.7,3.12-29.41,0,0-.18-2.62-.45-6.39-.21-2.63-.47-5.82-.77-9.06-.26-2.78-.55-5.59-.86-8.12h9.59c0,1.43,0,3.09,0,5.26v.08c0,.18,0,.34,0,.5C307.59,325.28,307.5,326.24,307.53,326.78Z"/><path class="cls-34" d="M307.58,319.09H298c-.29-2.5-.62-4.74-1-6.39-.16,1.36-.33,2.83-.52,4.34-.08.61-.17,1.22-.24,1.83l0,.22H285.66c-.28-5.74-.43-10.56-.19-11.83a27.32,27.32,0,0,1,3.19-8.88c1.48-2.48,3.72-4.63,4.25-7.55h10.65c1.44,5.35,4,10.65,3.95,16.45v.14C307.47,313.08,307.56,315.09,307.58,319.09Z"/><path class="cls-6" d="M292.93,290.72a7.14,7.14,0,0,0-.19-2.5H303c.16.88.37,1.74.6,2.61H292.91S292.92,290.76,292.93,290.72Z"/><path class="cls-8" d="M296.82,372.2c-1.59,4.29,2.14,4.32,10.48,4.24,1.16,0,2-1.25,0-1.84l-6.91-2.51s-2.82-.07-3.43,0Z"/><path class="cls-8" d="M277.26,367.49l1.8-1.39,2.85,1.39,1.51,4.43a4.6,4.6,0,0,0,2.67,2.8,3.31,3.31,0,0,1,.75.38,1,1,0,0,1-.61,1.79h-2.47a4.52,4.52,0,0,1-3.77-2l-2.73-4.09S275.85,369,277.26,367.49Z"/><path class="cls-6" d="M296.17,247a4.76,4.76,0,0,0-2.77-.67,7.55,7.55,0,0,0-4.86,1.5,5.62,5.62,0,0,0-2.07,4.34,7.56,7.56,0,0,0,4.13,7.13,14.79,14.79,0,0,0,1.51.79,13.42,13.42,0,0,1-1.4-3.17,4.72,4.72,0,0,1,.61-3.35c.66-1,1.76-1.66,2.27-2.73a3.89,3.89,0,0,1,.06,1.62s1.35-.84,1.52-1c.94-.89,2.19-2.68,1.41-4A1.65,1.65,0,0,0,296.17,247Z"/><path class="cls-8" d="M324.09,287.15c0,10.09-6.86,13.89-15.33,13.89s-15.33-3.8-15.33-13.89c0-7.94,4.25-14.67,10.18-17.18a9.7,9.7,0,0,1,1.33-.49c-.26-.32-.54-.63-.77-.94a5.74,5.74,0,0,1-.48-.69A15.39,15.39,0,0,1,302,262.7c-.22-1.26-.49-5,1.77-4,1.26.54,1.35,4.64,3.56,3.68,1.27-.56,2.06-6.63,3.71-2.61.54,1.35,0,2.21,1.8,1.42,1.3-.55,1.89-2.14,2.73-.08.72,1.78-.85,3.84-1.34,5.52a10.44,10.44,0,0,0-.36,2.44l0,.86c.34.14.69.3,1,.48C320.27,273.18,324.09,279.63,324.09,287.15Z"/><path class="cls-6" d="M308.13,291.67c-2.44-.21-4.19-1.52-4.25-3.79h2.85a1.69,1.69,0,0,0,1.4,1.65V285.9c-1.95-.49-4.25-1-4.25-3.85,0-2.23,1.79-3.69,4.25-3.88v-1.54h1.22v1.54c2.37.19,4,1.46,4.13,3.71h-2.86a1.73,1.73,0,0,0-1.27-1.53v3.58c2,.51,4.28,1,4.28,3.83,0,1.94-1.51,3.74-4.28,3.93v1.54h-1.22Zm0-8.1v-3.28a1.56,1.56,0,0,0-1.48,1.63C306.65,282.81,307.26,283.27,308.13,283.57Zm1.22,2.68v3.31a1.69,1.69,0,0,0,1.53-1.68C310.88,287,310.24,286.55,309.35,286.25Z"/><g class="cls-35"><path class="cls-8" d="M324.09,287.15c0,10.09-6.86,13.89-15.33,13.89a24,24,0,0,1-2.85-.16c7.1-.8,12.47-4.8,12.47-13.73,0-7.52-3.82-14-9.27-16.75-.34-.18-.69-.34-1-.48l0-.86a10.44,10.44,0,0,1,.36-2.44c.49-1.68,2.06-3.74,1.34-5.52-.43-1-.78-1.15-1.19-.94.67-1.53,1.36-2.88,2.37-.4.54,1.35,0,2.21,1.8,1.42,1.3-.55,1.89-2.14,2.73-.08.72,1.78-.85,3.84-1.34,5.52a10.44,10.44,0,0,0-.36,2.44l0,.86a10.64,10.64,0,0,1,1,.48C320.27,273.18,324.09,279.63,324.09,287.15Z"/></g><path class="cls-6" d="M314.82,270.4c-3.62.44-7.58-.35-11.21-.43a9.7,9.7,0,0,1,1.33-.49c-.26-.32-.54-.63-.77-.94,3.11.15,6.53.75,9.65.52l0,.86C314.13,270.06,314.48,270.22,314.82,270.4Z"/><path class="cls-17" d="M313.57,272.22c-1.83,1-3.73,1-4.23.1s.58-2.49,2.41-3.48,3.73-1,4.23-.1S315.41,271.23,313.57,272.22Z"/><path class="cls-17" d="M308.07,301.38c-.94.52-1.58.54-4.12.08a7.18,7.18,0,0,1-3.7-2.06h0l0-.06c-.28-.27-.54-.55-.79-.84l-.23-.29c-1.46-1.63-2.9-3.35-4.27-5.12l2.77-1.87a54.92,54.92,0,0,0,4.24,6.88h0l.19.15c1.8,1,3.43.64,6,1.91C308.41,300.3,309,300.85,308.07,301.38Z"/><path class="cls-36" d="M297.68,291.23l-2.77,1.87c-4.2-5.37-7.72-11.2-8.92-16.4-.62-2.67.79-8,.79-8,.72-2.52,3.55-3,5.61-1.19a3.26,3.26,0,0,1,1.15,3.06C292.37,277,294.09,284.28,297.68,291.23Z"/><path class="cls-6" d="M367.55,47.62a40.43,40.43,0,0,1-4.27-1.27h0a5.08,5.08,0,0,1-2.84-4.18v-.1l-3.62,1.53c-1.53.18,2.52,7.5,2.88,8.23a68.7,68.7,0,0,1,6,15.5c0,.23.17.53.42.52a.62.62,0,0,0,.24-.1,10.74,10.74,0,0,0,3.68-4c.36-.64.71-1.31,1-2,.19-.41.32-1.37.7-1.57a5.22,5.22,0,0,1,.14,1.84,8.12,8.12,0,0,0,1.19-2.37,15.59,15.59,0,0,0,1.16-3C375.2,52.26,371.38,48.94,367.55,47.62Z"/><path class="cls-27" d="M361.39,52.12l-.52-.77h0l-2.2-3.21L354.8,50c1.06,1.28,2.16,2.37,2.51,3.63a1.59,1.59,0,0,1-.12,1.15l-1.94,3.81,3.57,1.79,4.75-6.06C362.75,53.53,361.93,52.75,361.39,52.12Z"/><path class="cls-37" d="M355.32,68.09a8.71,8.71,0,0,1-.07-9.5h0a3.18,3.18,0,0,0,4.08-2l2.08-4.42c7.77,4.11,4.23,19.54,8.33,22.2l-12.09.48a10.18,10.18,0,0,0-.87-3.38Z"/><path class="cls-6" d="M357.42,77.6a8.51,8.51,0,0,0,.23-2.77l12.09-.48a22.3,22.3,0,0,0,.28,2.74Z"/><path class="cls-28" d="M350.86,77.71l-4.38,12.41-2.73-1.51-3.89-2.14-1.43-.8a7.57,7.57,0,0,0-3.7-.91,7.27,7.27,0,0,0-3.9,1.2,7.39,7.39,0,0,0-3.18,7.82l1,4.28,0,.08-8.74,11.54-.09.11a1,1,0,0,1,0,.23l-2.27-1.18,10.54-27.68a11,11,0,0,1,13.51-6.74l1.57.57,6.25,2.24h0Z"/><path class="cls-27" d="M345.65,89.23v6.62h-9.29c4.58,0,1,16.77,1.36,31.41v.08l.08.1-2.46.47-6.72-29.83-1-4.28A7.39,7.39,0,0,1,330.83,86a7.27,7.27,0,0,1,3.9-1.2,7.57,7.57,0,0,1,3.7.91l1.43.8,3.93,1.87Z"/><path class="cls-38" d="M349.51,74.62l-.8,2.33-16.25-5.57s-3.23-18.1-3-18.1l2.37-.1L335,69.33Z"/><path class="cls-28" d="M358.69,42.48a9.52,9.52,0,0,0-.68-1.14c-1.28-1.84-3.42-4.22-5.95-3.75-2.81.53-4.82,2.54-3.27,9.77.07.32-.17,1.45-.08,1.67s.46.22.73.19l.06,0a5.94,5.94,0,0,0,5.47,3.2c2.14-.2,3.49-2.53,4.13-4.35A6.93,6.93,0,0,0,358.69,42.48Z"/><path class="cls-6" d="M351.73,49.17a2.07,2.07,0,0,0,.31-2.06.15.15,0,0,0-.18-.09.16.16,0,0,0-.09.19,2,2,0,0,1-1,2.43.15.15,0,0,0-.07.19.16.16,0,0,0,.2.07A3,3,0,0,0,351.73,49.17Z"/><path class="cls-6" d="M350.44,46.51a.49.49,0,1,1-.93.31.51.51,0,0,1,.3-.64A.51.51,0,0,1,350.44,46.51Z"/><path class="cls-6" d="M350.73,44.83h0a.14.14,0,0,0,0-.2,1.19,1.19,0,0,0-1.68-.07.14.14,0,0,0,0,.2.13.13,0,0,0,.2,0,.91.91,0,0,1,1.28.07A.15.15,0,0,0,350.73,44.83Z"/><path class="cls-28" d="M370.66,74.63c-1.67,4.6-28-2.42-28-2.42l-6.86-2.48c1-2.73,4.12-2.54,7.92.8l22.53.36s-.07-.13-.17-.37A9.91,9.91,0,0,1,370.66,74.63Z"/><path class="cls-39" d="M370.68,74.57a.07.07,0,0,1,0,.06,9.91,9.91,0,0,0-4.53-4.11c-1.11-2.27-7-14.43-7.22-15.21a2.61,2.61,0,0,1,3.15-3.2C367.19,53.19,372,70.48,370.68,74.57Z"/><path class="cls-8" d="M309.29,111.5c-1.07-.25-1.54-1.55.39-1.69l7.77-.79,0,0,0-.13,2.27,1.18C320.22,114,316.77,113.29,309.29,111.5Z"/><path class="cls-8" d="M329.93,134.52c-1,.38-2.15-.42-.62-1.61l6.05-5,0-.06,2.46-.47C340.47,130.58,337.19,131.84,329.93,134.52Z"/><path class="cls-6" d="M360.64,43.28c-.41-4-3.92-7.68-8.15-6.89a7.17,7.17,0,0,0-1,.27A14.5,14.5,0,0,0,349,37.83c-.16.08-.41.19-.71.31A3,3,0,0,0,347.19,43l0,0a1.07,1.07,0,0,0,.55.28,12.24,12.24,0,0,0,2.45.33,3.4,3.4,0,0,1-.37-1.66c0,.19.67.6.81.7.3.21.62.39.92.61a7.19,7.19,0,0,1,1.5,1.36A11.34,11.34,0,0,1,355,48.47a4.38,4.38,0,0,0,.92-3.72.83.83,0,0,1,.83-1A1.5,1.5,0,0,1,358,44.89a1.66,1.66,0,0,1-.59,2,9.89,9.89,0,0,1,.22,1.11c1.51,5.6,3.6,4.27,3.72,4.07.39-.63-1.45-4.59-1.2-5.28A7.91,7.91,0,0,0,360.64,43.28Z"/><path class="cls-40" d="M367.69,93.67c5.5-6.7,3.13-11.14,2.33-16.58l-12.6.51a11.47,11.47,0,0,1-.69,2l-5.87-1.91-4.38,12.41,6.67,3.67a17.43,17.43,0,0,0,6.39,2.09h0A17.12,17.12,0,0,0,362,96c2.34-.09,4.09-.65,5.17-1.72h0l0,0A3.87,3.87,0,0,0,367.69,93.67Z"/><polygon class="cls-41" points="359.54 95.88 345.65 95.85 345.65 89.23 359.54 95.88"/><path class="cls-8" d="M175.2,137.76v6.65a1.58,1.58,0,0,1-1.58,1.58H120.29a1.64,1.64,0,0,1-1.14-.47,1.58,1.58,0,0,1-.44-1.11v-6.65a1.59,1.59,0,0,1,1.58-1.59h53.33A1.59,1.59,0,0,1,175.2,137.76Z"/><rect class="cls-19" x="136.46" y="136.18" width="29.98" height="9.82"/><path class="cls-19" d="M120.29,136.18h10.6a0,0,0,0,1,0,0V146a0,0,0,0,1,0,0h-10.6a1.59,1.59,0,0,1-1.59-1.59v-6.65A1.59,1.59,0,0,1,120.29,136.18Z"/><path class="cls-19" d="M120.29,136.18h10.6a0,0,0,0,1,0,0V146a0,0,0,0,1,0,0h-10.6a1.59,1.59,0,0,1-1.59-1.59v-6.65A1.59,1.59,0,0,1,120.29,136.18Z"/><path class="cls-19" d="M172.13,136.18h1.49a1.59,1.59,0,0,1,1.59,1.59v6.65a1.59,1.59,0,0,1-1.59,1.59h-1.49a0,0,0,0,1,0,0v-9.82A0,0,0,0,1,172.13,136.18Z"/><path class="cls-19" d="M175.2,137.76v6.65a1.58,1.58,0,0,1-1.58,1.58H120.29a1.64,1.64,0,0,1-1.14-.47C126.34,144,150.9,139,165,136.17h8.61A1.59,1.59,0,0,1,175.2,137.76Z"/><path class="cls-8" d="M169.35,127.94v6.65a1.58,1.58,0,0,1-1.58,1.58H114.44a1.64,1.64,0,0,1-1.14-.47,1.58,1.58,0,0,1-.44-1.11v-6.65a1.59,1.59,0,0,1,1.58-1.59h53.33A1.59,1.59,0,0,1,169.35,127.94Z"/><rect class="cls-19" x="130.61" y="126.36" width="29.98" height="9.82"/><path class="cls-19" d="M114.44,126.36H125a0,0,0,0,1,0,0v9.82a0,0,0,0,1,0,0h-10.6a1.59,1.59,0,0,1-1.59-1.59v-6.65A1.59,1.59,0,0,1,114.44,126.36Z"/><path class="cls-19" d="M114.44,126.36H125a0,0,0,0,1,0,0v9.82a0,0,0,0,1,0,0h-10.6a1.59,1.59,0,0,1-1.59-1.59v-6.65A1.59,1.59,0,0,1,114.44,126.36Z"/><path class="cls-19" d="M166.27,126.36h1.49a1.59,1.59,0,0,1,1.59,1.59v6.65a1.59,1.59,0,0,1-1.59,1.59h-1.49a0,0,0,0,1,0,0v-9.82A0,0,0,0,1,166.27,126.36Z"/><path class="cls-19" d="M169.35,127.94v6.65a1.58,1.58,0,0,1-1.58,1.58H114.44a1.64,1.64,0,0,1-1.14-.47c7.19-1.57,31.75-6.51,45.86-9.35h8.61A1.59,1.59,0,0,1,169.35,127.94Z"/><path class="cls-8" d="M175.2,118.12v6.65a1.58,1.58,0,0,1-1.58,1.58H120.29a1.64,1.64,0,0,1-1.14-.47,1.58,1.58,0,0,1-.44-1.11v-6.65a1.58,1.58,0,0,1,1.58-1.58h53.33A1.58,1.58,0,0,1,175.2,118.12Z"/><rect class="cls-19" x="136.46" y="116.54" width="29.98" height="9.82"/><path class="cls-19" d="M120.29,116.54h10.6a0,0,0,0,1,0,0v9.82a0,0,0,0,1,0,0h-10.6a1.59,1.59,0,0,1-1.59-1.59v-6.65A1.59,1.59,0,0,1,120.29,116.54Z"/><path class="cls-19" d="M120.29,116.54h10.6a0,0,0,0,1,0,0v9.82a0,0,0,0,1,0,0h-10.6a1.59,1.59,0,0,1-1.59-1.59v-6.65A1.59,1.59,0,0,1,120.29,116.54Z"/><path class="cls-19" d="M172.13,116.54h1.49a1.59,1.59,0,0,1,1.59,1.59v6.65a1.59,1.59,0,0,1-1.59,1.59h-1.49a0,0,0,0,1,0,0v-9.82A0,0,0,0,1,172.13,116.54Z"/><path class="cls-19" d="M175.2,118.12v6.65a1.58,1.58,0,0,1-1.58,1.58H120.29a1.64,1.64,0,0,1-1.14-.47c7.19-1.56,31.75-6.51,45.86-9.34h8.61A1.58,1.58,0,0,1,175.2,118.12Z"/><path class="cls-8" d="M169.35,108.3V115a1.58,1.58,0,0,1-1.58,1.58H114.44a1.64,1.64,0,0,1-1.14-.47,1.58,1.58,0,0,1-.44-1.11V108.3a1.58,1.58,0,0,1,1.58-1.58h53.33A1.58,1.58,0,0,1,169.35,108.3Z"/><rect class="cls-19" x="130.61" y="106.72" width="29.98" height="9.82"/><path class="cls-19" d="M114.44,106.72H125a0,0,0,0,1,0,0v9.82a0,0,0,0,1,0,0h-10.6a1.59,1.59,0,0,1-1.59-1.59V108.3A1.59,1.59,0,0,1,114.44,106.72Z"/><path class="cls-19" d="M114.44,106.72H125a0,0,0,0,1,0,0v9.82a0,0,0,0,1,0,0h-10.6a1.59,1.59,0,0,1-1.59-1.59V108.3A1.59,1.59,0,0,1,114.44,106.72Z"/><path class="cls-19" d="M166.27,106.72h1.49a1.59,1.59,0,0,1,1.59,1.59V115a1.59,1.59,0,0,1-1.59,1.59h-1.49a0,0,0,0,1,0,0v-9.82A0,0,0,0,1,166.27,106.72Z"/><path class="cls-19" d="M169.35,108.3V115a1.58,1.58,0,0,1-1.58,1.58H114.44a1.64,1.64,0,0,1-1.14-.47c7.19-1.56,31.75-6.51,45.86-9.34h8.61A1.58,1.58,0,0,1,169.35,108.3Z"/><path class="cls-8" d="M175.2,98.49v6.64a1.59,1.59,0,0,1-1.58,1.59H120.29a1.6,1.6,0,0,1-1.14-.48,1.58,1.58,0,0,1-.44-1.11V98.49a1.59,1.59,0,0,1,1.58-1.59h53.33A1.59,1.59,0,0,1,175.2,98.49Z"/><rect class="cls-19" x="136.46" y="96.9" width="29.98" height="9.82"/><path class="cls-19" d="M120.29,96.9h10.6a0,0,0,0,1,0,0v9.82a0,0,0,0,1,0,0h-10.6a1.59,1.59,0,0,1-1.59-1.59V98.49A1.59,1.59,0,0,1,120.29,96.9Z"/><path class="cls-19" d="M120.29,96.9h10.6a0,0,0,0,1,0,0v9.82a0,0,0,0,1,0,0h-10.6a1.59,1.59,0,0,1-1.59-1.59V98.49A1.59,1.59,0,0,1,120.29,96.9Z"/><path class="cls-19" d="M172.13,96.9h1.49a1.59,1.59,0,0,1,1.59,1.59v6.65a1.59,1.59,0,0,1-1.59,1.59h-1.49a0,0,0,0,1,0,0V96.9A0,0,0,0,1,172.13,96.9Z"/><path class="cls-19" d="M175.2,98.49v6.64a1.59,1.59,0,0,1-1.58,1.59H120.29a1.6,1.6,0,0,1-1.14-.48c7.19-1.56,31.75-6.51,45.86-9.34h8.61A1.59,1.59,0,0,1,175.2,98.49Z"/><path class="cls-8" d="M169.35,88.67v6.64a1.59,1.59,0,0,1-1.58,1.59H114.44a1.6,1.6,0,0,1-1.14-.48,1.58,1.58,0,0,1-.44-1.11V88.67a1.59,1.59,0,0,1,1.58-1.59h53.33A1.59,1.59,0,0,1,169.35,88.67Z"/><rect class="cls-19" x="130.61" y="87.08" width="29.98" height="9.82"/><path class="cls-19" d="M114.44,87.08H125a0,0,0,0,1,0,0V96.9a0,0,0,0,1,0,0h-10.6a1.59,1.59,0,0,1-1.59-1.59V88.67A1.59,1.59,0,0,1,114.44,87.08Z"/><path class="cls-19" d="M114.44,87.08H125a0,0,0,0,1,0,0V96.9a0,0,0,0,1,0,0h-10.6a1.59,1.59,0,0,1-1.59-1.59V88.67A1.59,1.59,0,0,1,114.44,87.08Z"/><path class="cls-19" d="M166.27,87.08h1.49a1.59,1.59,0,0,1,1.59,1.59v6.65a1.59,1.59,0,0,1-1.59,1.59h-1.49a0,0,0,0,1,0,0V87.08A0,0,0,0,1,166.27,87.08Z"/><path class="cls-19" d="M169.35,88.67v6.64a1.59,1.59,0,0,1-1.58,1.59H114.44a1.6,1.6,0,0,1-1.14-.48c7.19-1.56,31.75-6.51,45.86-9.34h8.61A1.59,1.59,0,0,1,169.35,88.67Z"/><path class="cls-8" d="M175.2,78.85v6.64a1.59,1.59,0,0,1-1.58,1.59H120.29a1.6,1.6,0,0,1-1.14-.48,1.58,1.58,0,0,1-.44-1.11V78.85a1.59,1.59,0,0,1,1.58-1.59h53.33A1.59,1.59,0,0,1,175.2,78.85Z"/><rect class="cls-19" x="136.46" y="77.26" width="29.98" height="9.82"/><path class="cls-19" d="M120.29,77.26h10.6a0,0,0,0,1,0,0v9.82a0,0,0,0,1,0,0h-10.6a1.59,1.59,0,0,1-1.59-1.59V78.85A1.59,1.59,0,0,1,120.29,77.26Z"/><path class="cls-19" d="M120.29,77.26h10.6a0,0,0,0,1,0,0v9.82a0,0,0,0,1,0,0h-10.6a1.59,1.59,0,0,1-1.59-1.59V78.85A1.59,1.59,0,0,1,120.29,77.26Z"/><path class="cls-19" d="M172.13,77.26h1.49a1.59,1.59,0,0,1,1.59,1.59v6.65a1.59,1.59,0,0,1-1.59,1.59h-1.49a0,0,0,0,1,0,0V77.26A0,0,0,0,1,172.13,77.26Z"/><path class="cls-19" d="M175.2,78.85v6.64a1.59,1.59,0,0,1-1.58,1.59H120.29a1.6,1.6,0,0,1-1.14-.48C126.34,85,150.9,80.09,165,77.26h8.61A1.59,1.59,0,0,1,175.2,78.85Z"/><path class="cls-21" d="M166.24,85.8l.63,1.16a1,1,0,0,0,.38.37l1.16.63a1,1,0,0,1,0,1.66l-1.16.63a1,1,0,0,0-.38.37l-.63,1.16a.94.94,0,0,1-1.65,0L164,90.62a1,1,0,0,0-.38-.37l-1.16-.63a1,1,0,0,1,0-1.66l1.16-.63A1,1,0,0,0,164,87l.63-1.16A.93.93,0,0,1,166.24,85.8Z"/><path class="cls-21" d="M121,103.73l.63,1.16a1,1,0,0,0,.38.37l1.16.63a.94.94,0,0,1,0,1.65l-1.16.64a1,1,0,0,0-.38.37l-.63,1.16a.94.94,0,0,1-1.65,0l-.64-1.16a.94.94,0,0,0-.37-.37l-1.16-.64a.94.94,0,0,1,0-1.65l1.16-.63a.94.94,0,0,0,.37-.37l.64-1.16A.93.93,0,0,1,121,103.73Z"/><path class="cls-21" d="M162.76,133.18l.63,1.16a1,1,0,0,0,.38.38l1.16.63a.94.94,0,0,1,0,1.65l-1.16.64a.9.9,0,0,0-.38.37l-.63,1.16a.94.94,0,0,1-1.65,0l-.64-1.16a.83.83,0,0,0-.37-.37l-1.16-.64a.94.94,0,0,1,0-1.65l1.16-.63a.9.9,0,0,0,.37-.38l.64-1.16A.94.94,0,0,1,162.76,133.18Z"/><path class="cls-8" d="M565.6,137.76v6.65A1.59,1.59,0,0,1,564,146H510.69a1.57,1.57,0,0,1-1.59-1.58v-6.65a1.59,1.59,0,0,1,1.59-1.59H564A1.59,1.59,0,0,1,565.6,137.76Z"/><rect class="cls-19" x="526.85" y="136.18" width="29.98" height="9.82"/><path class="cls-19" d="M510.68,136.18h10.6a0,0,0,0,1,0,0V146a0,0,0,0,1,0,0h-10.6a1.59,1.59,0,0,1-1.59-1.59v-6.65A1.59,1.59,0,0,1,510.68,136.18Z"/><path class="cls-19" d="M510.68,136.18h10.6a0,0,0,0,1,0,0V146a0,0,0,0,1,0,0h-10.6a1.59,1.59,0,0,1-1.59-1.59v-6.65A1.59,1.59,0,0,1,510.68,136.18Z"/><path class="cls-19" d="M562.52,136.18H564a1.59,1.59,0,0,1,1.59,1.59v6.65A1.59,1.59,0,0,1,564,146h-1.49a0,0,0,0,1,0,0v-9.82A0,0,0,0,1,562.52,136.18Z"/><path class="cls-19" d="M565.6,137.76v6.65A1.59,1.59,0,0,1,564,146H510.69a1.6,1.6,0,0,1-1.14-.47c7.19-1.57,31.75-6.51,45.85-9.35H564A1.59,1.59,0,0,1,565.6,137.76Z"/><path class="cls-8" d="M559.74,127.94v6.65a1.58,1.58,0,0,1-1.58,1.58H504.83a1.64,1.64,0,0,1-1.14-.47,1.58,1.58,0,0,1-.44-1.11v-6.65a1.59,1.59,0,0,1,1.58-1.59h53.33A1.59,1.59,0,0,1,559.74,127.94Z"/><rect class="cls-19" x="521" y="126.36" width="29.98" height="9.82"/><path class="cls-19" d="M504.83,126.36h10.6a0,0,0,0,1,0,0v9.82a0,0,0,0,1,0,0h-10.6a1.59,1.59,0,0,1-1.59-1.59v-6.65A1.59,1.59,0,0,1,504.83,126.36Z"/><path class="cls-19" d="M504.83,126.36h10.6a0,0,0,0,1,0,0v9.82a0,0,0,0,1,0,0h-10.6a1.59,1.59,0,0,1-1.59-1.59v-6.65A1.59,1.59,0,0,1,504.83,126.36Z"/><path class="cls-19" d="M556.67,126.36h1.49a1.59,1.59,0,0,1,1.59,1.59v6.65a1.59,1.59,0,0,1-1.59,1.59h-1.49a0,0,0,0,1,0,0v-9.82A0,0,0,0,1,556.67,126.36Z"/><path class="cls-19" d="M559.74,127.94v6.65a1.58,1.58,0,0,1-1.58,1.58H504.83a1.64,1.64,0,0,1-1.14-.47c7.19-1.57,31.75-6.51,45.86-9.35h8.61A1.59,1.59,0,0,1,559.74,127.94Z"/><path class="cls-8" d="M565.6,118.12v6.65a1.59,1.59,0,0,1-1.59,1.58H510.69a1.57,1.57,0,0,1-1.59-1.58v-6.65a1.59,1.59,0,0,1,1.59-1.58H564A1.59,1.59,0,0,1,565.6,118.12Z"/><rect class="cls-19" x="526.85" y="116.54" width="29.98" height="9.82"/><path class="cls-19" d="M510.68,116.54h10.6a0,0,0,0,1,0,0v9.82a0,0,0,0,1,0,0h-10.6a1.59,1.59,0,0,1-1.59-1.59v-6.65A1.59,1.59,0,0,1,510.68,116.54Z"/><path class="cls-19" d="M510.68,116.54h10.6a0,0,0,0,1,0,0v9.82a0,0,0,0,1,0,0h-10.6a1.59,1.59,0,0,1-1.59-1.59v-6.65A1.59,1.59,0,0,1,510.68,116.54Z"/><path class="cls-19" d="M562.52,116.54H564a1.59,1.59,0,0,1,1.59,1.59v6.65a1.59,1.59,0,0,1-1.59,1.59h-1.49a0,0,0,0,1,0,0v-9.82A0,0,0,0,1,562.52,116.54Z"/><path class="cls-19" d="M565.6,118.12v6.65a1.59,1.59,0,0,1-1.59,1.58H510.69a1.6,1.6,0,0,1-1.14-.47c7.19-1.56,31.75-6.51,45.85-9.34H564A1.59,1.59,0,0,1,565.6,118.12Z"/><path class="cls-8" d="M559.74,108.3V115a1.58,1.58,0,0,1-1.58,1.58H504.83a1.64,1.64,0,0,1-1.14-.47,1.58,1.58,0,0,1-.44-1.11V108.3a1.58,1.58,0,0,1,1.58-1.58h53.33A1.58,1.58,0,0,1,559.74,108.3Z"/><rect class="cls-19" x="521" y="106.72" width="29.98" height="9.82"/><path class="cls-19" d="M504.83,106.72h10.6a0,0,0,0,1,0,0v9.82a0,0,0,0,1,0,0h-10.6a1.59,1.59,0,0,1-1.59-1.59V108.3A1.59,1.59,0,0,1,504.83,106.72Z"/><path class="cls-19" d="M504.83,106.72h10.6a0,0,0,0,1,0,0v9.82a0,0,0,0,1,0,0h-10.6a1.59,1.59,0,0,1-1.59-1.59V108.3A1.59,1.59,0,0,1,504.83,106.72Z"/><path class="cls-19" d="M556.67,106.72h1.49a1.59,1.59,0,0,1,1.59,1.59V115a1.59,1.59,0,0,1-1.59,1.59h-1.49a0,0,0,0,1,0,0v-9.82A0,0,0,0,1,556.67,106.72Z"/><path class="cls-19" d="M559.74,108.3V115a1.58,1.58,0,0,1-1.58,1.58H504.83a1.64,1.64,0,0,1-1.14-.47c7.19-1.56,31.75-6.51,45.86-9.34h8.61A1.58,1.58,0,0,1,559.74,108.3Z"/><path class="cls-8" d="M565.6,98.49v6.64a1.59,1.59,0,0,1-1.59,1.59H510.69a1.57,1.57,0,0,1-1.14-.48,1.59,1.59,0,0,1-.45-1.11V98.49a1.59,1.59,0,0,1,1.59-1.59H564A1.59,1.59,0,0,1,565.6,98.49Z"/><rect class="cls-19" x="526.85" y="96.9" width="29.98" height="9.82"/><path class="cls-19" d="M510.68,96.9h10.6a0,0,0,0,1,0,0v9.82a0,0,0,0,1,0,0h-10.6a1.59,1.59,0,0,1-1.59-1.59V98.49A1.59,1.59,0,0,1,510.68,96.9Z"/><path class="cls-19" d="M510.68,96.9h10.6a0,0,0,0,1,0,0v9.82a0,0,0,0,1,0,0h-10.6a1.59,1.59,0,0,1-1.59-1.59V98.49A1.59,1.59,0,0,1,510.68,96.9Z"/><path class="cls-19" d="M562.52,96.9H564a1.59,1.59,0,0,1,1.59,1.59v6.65a1.59,1.59,0,0,1-1.59,1.59h-1.49a0,0,0,0,1,0,0V96.9A0,0,0,0,1,562.52,96.9Z"/><path class="cls-19" d="M565.6,98.49v6.64a1.59,1.59,0,0,1-1.59,1.59H510.69a1.57,1.57,0,0,1-1.14-.48c7.19-1.56,31.75-6.51,45.85-9.34H564A1.59,1.59,0,0,1,565.6,98.49Z"/><path class="cls-8" d="M559.74,88.67v6.64a1.59,1.59,0,0,1-1.58,1.59H504.83a1.6,1.6,0,0,1-1.14-.48,1.58,1.58,0,0,1-.44-1.11V88.67a1.59,1.59,0,0,1,1.58-1.59h53.33A1.59,1.59,0,0,1,559.74,88.67Z"/><rect class="cls-19" x="521" y="87.08" width="29.98" height="9.82"/><path class="cls-19" d="M504.83,87.08h10.6a0,0,0,0,1,0,0V96.9a0,0,0,0,1,0,0h-10.6a1.59,1.59,0,0,1-1.59-1.59V88.67A1.59,1.59,0,0,1,504.83,87.08Z"/><path class="cls-19" d="M504.83,87.08h10.6a0,0,0,0,1,0,0V96.9a0,0,0,0,1,0,0h-10.6a1.59,1.59,0,0,1-1.59-1.59V88.67A1.59,1.59,0,0,1,504.83,87.08Z"/><path class="cls-19" d="M556.67,87.08h1.49a1.59,1.59,0,0,1,1.59,1.59v6.65a1.59,1.59,0,0,1-1.59,1.59h-1.49a0,0,0,0,1,0,0V87.08A0,0,0,0,1,556.67,87.08Z"/><path class="cls-19" d="M559.74,88.67v6.64a1.59,1.59,0,0,1-1.58,1.59H504.83a1.6,1.6,0,0,1-1.14-.48c7.19-1.56,31.75-6.51,45.86-9.34h8.61A1.59,1.59,0,0,1,559.74,88.67Z"/><path class="cls-8" d="M565.6,78.85v6.64A1.59,1.59,0,0,1,564,87.08H510.69a1.57,1.57,0,0,1-1.14-.48,1.59,1.59,0,0,1-.45-1.11V78.85a1.59,1.59,0,0,1,1.59-1.59H564A1.59,1.59,0,0,1,565.6,78.85Z"/><rect class="cls-19" x="526.85" y="77.26" width="29.98" height="9.82"/><path class="cls-19" d="M510.68,77.26h10.6a0,0,0,0,1,0,0v9.82a0,0,0,0,1,0,0h-10.6a1.59,1.59,0,0,1-1.59-1.59V78.85A1.59,1.59,0,0,1,510.68,77.26Z"/><path class="cls-19" d="M510.68,77.26h10.6a0,0,0,0,1,0,0v9.82a0,0,0,0,1,0,0h-10.6a1.59,1.59,0,0,1-1.59-1.59V78.85A1.59,1.59,0,0,1,510.68,77.26Z"/><path class="cls-19" d="M562.52,77.26H564a1.59,1.59,0,0,1,1.59,1.59v6.65A1.59,1.59,0,0,1,564,87.08h-1.49a0,0,0,0,1,0,0V77.26A0,0,0,0,1,562.52,77.26Z"/><path class="cls-19" d="M565.6,78.85v6.64A1.59,1.59,0,0,1,564,87.08H510.69a1.57,1.57,0,0,1-1.14-.48c7.19-1.56,31.75-6.51,45.85-9.34H564A1.59,1.59,0,0,1,565.6,78.85Z"/><path class="cls-21" d="M556.63,85.8l.64,1.16a.94.94,0,0,0,.37.37l1.16.63a1,1,0,0,1,0,1.66l-1.16.63a.94.94,0,0,0-.37.37l-.64,1.16a.93.93,0,0,1-1.65,0l-.63-1.16a1,1,0,0,0-.38-.37l-1.15-.63a.94.94,0,0,1,0-1.66l1.15-.63a1,1,0,0,0,.38-.37L555,85.8A.93.93,0,0,1,556.63,85.8Z"/><path class="cls-21" d="M511.42,103.73l.63,1.16a1,1,0,0,0,.38.37l1.16.63a.94.94,0,0,1,0,1.65l-1.16.64a1,1,0,0,0-.38.37l-.63,1.16a.94.94,0,0,1-1.65,0l-.63-1.16a1,1,0,0,0-.38-.37l-1.16-.64a.94.94,0,0,1,0-1.65l1.16-.63a1,1,0,0,0,.38-.37l.63-1.16A.93.93,0,0,1,511.42,103.73Z"/><path class="cls-21" d="M553.15,133.18l.64,1.16a.9.9,0,0,0,.37.38l1.16.63a.94.94,0,0,1,0,1.65l-1.16.64a.83.83,0,0,0-.37.37l-.64,1.16a.94.94,0,0,1-1.65,0l-.63-1.16a.9.9,0,0,0-.38-.37l-1.16-.64a.94.94,0,0,1,0-1.65l1.16-.63a1,1,0,0,0,.38-.38l.63-1.16A.94.94,0,0,1,553.15,133.18Z"/><path class="cls-8" d="M662.21,364.52v6.64a1.59,1.59,0,0,1-1.59,1.59H607.3a1.59,1.59,0,0,1-1.59-1.59v-6.64a1.59,1.59,0,0,1,1.59-1.59h53.32A1.59,1.59,0,0,1,662.21,364.52Z"/><rect class="cls-19" x="623.46" y="362.94" width="29.98" height="9.82"/><path class="cls-19" d="M607.29,362.94h10.6a0,0,0,0,1,0,0v9.82a0,0,0,0,1,0,0h-10.6a1.59,1.59,0,0,1-1.59-1.59v-6.65A1.59,1.59,0,0,1,607.29,362.94Z"/><path class="cls-19" d="M607.29,362.94h10.6a0,0,0,0,1,0,0v9.82a0,0,0,0,1,0,0h-10.6a1.59,1.59,0,0,1-1.59-1.59v-6.65A1.59,1.59,0,0,1,607.29,362.94Z"/><path class="cls-19" d="M659.13,362.94h1.49a1.59,1.59,0,0,1,1.59,1.59v6.65a1.59,1.59,0,0,1-1.59,1.59h-1.49a0,0,0,0,1,0,0v-9.82A0,0,0,0,1,659.13,362.94Z"/><path class="cls-19" d="M662.21,364.52v6.64a1.59,1.59,0,0,1-1.59,1.59H607.3a1.57,1.57,0,0,1-1.14-.48c7.18-1.56,31.74-6.51,45.85-9.34h8.61A1.59,1.59,0,0,1,662.21,364.52Z"/><path class="cls-8" d="M656.35,354.7v6.64a1.59,1.59,0,0,1-1.58,1.59H601.44a1.6,1.6,0,0,1-1.14-.48,1.56,1.56,0,0,1-.44-1.11V354.7a1.59,1.59,0,0,1,1.58-1.59h53.33A1.59,1.59,0,0,1,656.35,354.7Z"/><rect class="cls-19" x="617.61" y="353.11" width="29.98" height="9.82"/><path class="cls-19" d="M601.44,353.11H612a0,0,0,0,1,0,0v9.82a0,0,0,0,1,0,0h-10.6a1.59,1.59,0,0,1-1.59-1.59V354.7A1.59,1.59,0,0,1,601.44,353.11Z"/><path class="cls-19" d="M601.44,353.11H612a0,0,0,0,1,0,0v9.82a0,0,0,0,1,0,0h-10.6a1.59,1.59,0,0,1-1.59-1.59V354.7A1.59,1.59,0,0,1,601.44,353.11Z"/><path class="cls-19" d="M653.28,353.11h1.49a1.59,1.59,0,0,1,1.59,1.59v6.65a1.59,1.59,0,0,1-1.59,1.59h-1.49a0,0,0,0,1,0,0v-9.82A0,0,0,0,1,653.28,353.11Z"/><path class="cls-19" d="M656.35,354.7v6.64a1.59,1.59,0,0,1-1.58,1.59H601.44a1.6,1.6,0,0,1-1.14-.48c7.19-1.56,31.75-6.51,45.86-9.34h8.61A1.59,1.59,0,0,1,656.35,354.7Z"/><path class="cls-8" d="M662.21,344.88v6.65a1.59,1.59,0,0,1-1.59,1.58H607.3a1.57,1.57,0,0,1-1.59-1.58v-6.65a1.59,1.59,0,0,1,1.59-1.59h53.32A1.59,1.59,0,0,1,662.21,344.88Z"/><rect class="cls-19" x="623.46" y="343.3" width="29.98" height="9.82"/><path class="cls-19" d="M607.29,343.3h10.6a0,0,0,0,1,0,0v9.82a0,0,0,0,1,0,0h-10.6a1.59,1.59,0,0,1-1.59-1.59v-6.65A1.59,1.59,0,0,1,607.29,343.3Z"/><path class="cls-19" d="M607.29,343.3h10.6a0,0,0,0,1,0,0v9.82a0,0,0,0,1,0,0h-10.6a1.59,1.59,0,0,1-1.59-1.59v-6.65A1.59,1.59,0,0,1,607.29,343.3Z"/><path class="cls-19" d="M659.13,343.3h1.49a1.59,1.59,0,0,1,1.59,1.59v6.65a1.59,1.59,0,0,1-1.59,1.59h-1.49a0,0,0,0,1,0,0V343.3A0,0,0,0,1,659.13,343.3Z"/><path class="cls-19" d="M662.21,344.88v6.65a1.59,1.59,0,0,1-1.59,1.58H607.3a1.6,1.6,0,0,1-1.14-.47c7.18-1.57,31.74-6.51,45.85-9.35h8.61A1.59,1.59,0,0,1,662.21,344.88Z"/><path class="cls-8" d="M656.35,335.06v6.65a1.58,1.58,0,0,1-1.58,1.58H601.44a1.64,1.64,0,0,1-1.14-.47,1.58,1.58,0,0,1-.44-1.11v-6.65a1.59,1.59,0,0,1,1.58-1.59h53.33A1.59,1.59,0,0,1,656.35,335.06Z"/><rect class="cls-19" x="617.61" y="333.48" width="29.98" height="9.82"/><path class="cls-19" d="M601.44,333.48H612a0,0,0,0,1,0,0v9.82a0,0,0,0,1,0,0h-10.6a1.59,1.59,0,0,1-1.59-1.59v-6.65A1.59,1.59,0,0,1,601.44,333.48Z"/><path class="cls-19" d="M601.44,333.48H612a0,0,0,0,1,0,0v9.82a0,0,0,0,1,0,0h-10.6a1.59,1.59,0,0,1-1.59-1.59v-6.65A1.59,1.59,0,0,1,601.44,333.48Z"/><path class="cls-19" d="M653.28,333.48h1.49a1.59,1.59,0,0,1,1.59,1.59v6.65a1.59,1.59,0,0,1-1.59,1.59h-1.49a0,0,0,0,1,0,0v-9.82a0,0,0,0,1,0,0Z"/><path class="cls-19" d="M656.35,335.06v6.65a1.58,1.58,0,0,1-1.58,1.58H601.44a1.64,1.64,0,0,1-1.14-.47c7.19-1.57,31.75-6.51,45.86-9.35h8.61A1.59,1.59,0,0,1,656.35,335.06Z"/><path class="cls-8" d="M662.21,325.24v6.65a1.58,1.58,0,0,1-1.59,1.58H607.3a1.57,1.57,0,0,1-1.59-1.58v-6.65a1.59,1.59,0,0,1,1.59-1.58h53.32A1.59,1.59,0,0,1,662.21,325.24Z"/><rect class="cls-19" x="623.46" y="323.66" width="29.98" height="9.82"/><path class="cls-19" d="M607.29,323.66h10.6a0,0,0,0,1,0,0v9.82a0,0,0,0,1,0,0h-10.6a1.59,1.59,0,0,1-1.59-1.59v-6.65A1.59,1.59,0,0,1,607.29,323.66Z"/><path class="cls-19" d="M607.29,323.66h10.6a0,0,0,0,1,0,0v9.82a0,0,0,0,1,0,0h-10.6a1.59,1.59,0,0,1-1.59-1.59v-6.65A1.59,1.59,0,0,1,607.29,323.66Z"/><path class="cls-19" d="M659.13,323.66h1.49a1.59,1.59,0,0,1,1.59,1.59v6.65a1.59,1.59,0,0,1-1.59,1.59h-1.49a0,0,0,0,1,0,0v-9.82A0,0,0,0,1,659.13,323.66Z"/><path class="cls-19" d="M662.21,325.24v6.65a1.58,1.58,0,0,1-1.59,1.58H607.3a1.6,1.6,0,0,1-1.14-.47c7.18-1.56,31.74-6.51,45.85-9.34h8.61A1.59,1.59,0,0,1,662.21,325.24Z"/><path class="cls-8" d="M656.35,315.42v6.65a1.58,1.58,0,0,1-1.58,1.58H601.44a1.64,1.64,0,0,1-1.14-.47,1.58,1.58,0,0,1-.44-1.11v-6.65a1.58,1.58,0,0,1,1.58-1.58h53.33A1.58,1.58,0,0,1,656.35,315.42Z"/><rect class="cls-19" x="617.61" y="313.84" width="29.98" height="9.82"/><path class="cls-19" d="M601.44,313.84H612a0,0,0,0,1,0,0v9.82a0,0,0,0,1,0,0h-10.6a1.59,1.59,0,0,1-1.59-1.59v-6.65A1.59,1.59,0,0,1,601.44,313.84Z"/><path class="cls-19" d="M601.44,313.84H612a0,0,0,0,1,0,0v9.82a0,0,0,0,1,0,0h-10.6a1.59,1.59,0,0,1-1.59-1.59v-6.65A1.59,1.59,0,0,1,601.44,313.84Z"/><path class="cls-19" d="M653.28,313.84h1.49a1.59,1.59,0,0,1,1.59,1.59v6.65a1.59,1.59,0,0,1-1.59,1.59h-1.49a0,0,0,0,1,0,0v-9.82A0,0,0,0,1,653.28,313.84Z"/><path class="cls-19" d="M656.35,315.42v6.65a1.58,1.58,0,0,1-1.58,1.58H601.44a1.64,1.64,0,0,1-1.14-.47c7.19-1.56,31.75-6.51,45.86-9.34h8.61A1.58,1.58,0,0,1,656.35,315.42Z"/><path class="cls-8" d="M662.21,305.6v6.65a1.58,1.58,0,0,1-1.59,1.58H607.3a1.57,1.57,0,0,1-1.59-1.58V305.6A1.59,1.59,0,0,1,607.3,304h53.32A1.59,1.59,0,0,1,662.21,305.6Z"/><rect class="cls-19" x="623.46" y="304.02" width="29.98" height="9.82"/><path class="cls-19" d="M607.29,304h10.6a0,0,0,0,1,0,0v9.82a0,0,0,0,1,0,0h-10.6a1.59,1.59,0,0,1-1.59-1.59v-6.65A1.59,1.59,0,0,1,607.29,304Z"/><path class="cls-19" d="M607.29,304h10.6a0,0,0,0,1,0,0v9.82a0,0,0,0,1,0,0h-10.6a1.59,1.59,0,0,1-1.59-1.59v-6.65A1.59,1.59,0,0,1,607.29,304Z"/><path class="cls-19" d="M659.13,304h1.49a1.59,1.59,0,0,1,1.59,1.59v6.65a1.59,1.59,0,0,1-1.59,1.59h-1.49a0,0,0,0,1,0,0V304A0,0,0,0,1,659.13,304Z"/><path class="cls-19" d="M662.21,305.6v6.65a1.58,1.58,0,0,1-1.59,1.58H607.3a1.6,1.6,0,0,1-1.14-.47c7.18-1.56,31.74-6.51,45.85-9.34h8.61A1.59,1.59,0,0,1,662.21,305.6Z"/><path class="cls-21" d="M653.24,312.55l.64,1.16a.9.9,0,0,0,.37.38l1.16.63a.94.94,0,0,1,0,1.65l-1.16.64a.83.83,0,0,0-.37.37l-.64,1.16a.94.94,0,0,1-1.65,0l-.63-1.16a.9.9,0,0,0-.38-.37l-1.16-.64a.94.94,0,0,1,0-1.65l1.16-.63a1,1,0,0,0,.38-.38l.63-1.16A.94.94,0,0,1,653.24,312.55Z"/><path class="cls-21" d="M608,330.48l.63,1.16a1,1,0,0,0,.38.38l1.16.63a.94.94,0,0,1,0,1.65l-1.16.64a.9.9,0,0,0-.38.37l-.63,1.16a.94.94,0,0,1-1.65,0l-.64-1.16a.83.83,0,0,0-.37-.37l-1.16-.64a.94.94,0,0,1,0-1.65l1.16-.63a.9.9,0,0,0,.37-.38l.64-1.16A.94.94,0,0,1,608,330.48Z"/><path class="cls-21" d="M649.76,359.94l.63,1.16a1,1,0,0,0,.38.38l1.16.63a.94.94,0,0,1,0,1.65l-1.16.63a1,1,0,0,0-.38.38l-.63,1.16a.94.94,0,0,1-1.65,0l-.64-1.16a.9.9,0,0,0-.37-.38l-1.16-.63a.94.94,0,0,1,0-1.65l1.16-.63a.9.9,0,0,0,.37-.38l.64-1.16A.94.94,0,0,1,649.76,359.94Z"/><path class="cls-8" d="M654.64,296.58v6.64a1.59,1.59,0,0,1-1.59,1.59H599.73a1.59,1.59,0,0,1-1.59-1.59v-6.64a1.59,1.59,0,0,1,1.59-1.59h53.32A1.59,1.59,0,0,1,654.64,296.58Z"/><rect class="cls-19" x="615.89" y="295" width="29.98" height="9.82"/><path class="cls-19" d="M599.72,295h10.6a0,0,0,0,1,0,0v9.82a0,0,0,0,1,0,0h-10.6a1.59,1.59,0,0,1-1.59-1.59v-6.65A1.59,1.59,0,0,1,599.72,295Z"/><path class="cls-19" d="M599.72,295h10.6a0,0,0,0,1,0,0v9.82a0,0,0,0,1,0,0h-10.6a1.59,1.59,0,0,1-1.59-1.59v-6.65A1.59,1.59,0,0,1,599.72,295Z"/><path class="cls-19" d="M651.56,295H653a1.59,1.59,0,0,1,1.59,1.59v6.65a1.59,1.59,0,0,1-1.59,1.59h-1.49a0,0,0,0,1,0,0V295a0,0,0,0,1,0,0Z"/><path class="cls-19" d="M654.64,296.58v6.64a1.59,1.59,0,0,1-1.59,1.59H599.73a1.57,1.57,0,0,1-1.14-.48c7.19-1.56,31.74-6.5,45.85-9.34h8.61A1.59,1.59,0,0,1,654.64,296.58Z"/><path class="cls-8" d="M648.78,286.76v6.64A1.59,1.59,0,0,1,647.2,295H593.87a1.6,1.6,0,0,1-1.14-.48,1.55,1.55,0,0,1-.44-1.11v-6.64a1.59,1.59,0,0,1,1.58-1.59H647.2A1.59,1.59,0,0,1,648.78,286.76Z"/><rect class="cls-19" x="610.04" y="285.18" width="29.98" height="9.82"/><path class="cls-19" d="M593.87,285.18h10.6a0,0,0,0,1,0,0V295a0,0,0,0,1,0,0h-10.6a1.59,1.59,0,0,1-1.59-1.59v-6.65A1.59,1.59,0,0,1,593.87,285.18Z"/><path class="cls-19" d="M593.87,285.18h10.6a0,0,0,0,1,0,0V295a0,0,0,0,1,0,0h-10.6a1.59,1.59,0,0,1-1.59-1.59v-6.65A1.59,1.59,0,0,1,593.87,285.18Z"/><path class="cls-19" d="M645.71,285.18h1.49a1.59,1.59,0,0,1,1.59,1.59v6.65a1.59,1.59,0,0,1-1.59,1.59h-1.49a0,0,0,0,1,0,0v-9.82A0,0,0,0,1,645.71,285.18Z"/><path class="cls-19" d="M648.78,286.76v6.64A1.59,1.59,0,0,1,647.2,295H593.87a1.6,1.6,0,0,1-1.14-.48c7.19-1.56,31.75-6.5,45.86-9.34h8.61A1.59,1.59,0,0,1,648.78,286.76Z"/><path class="cls-8" d="M654.64,276.94v6.65a1.59,1.59,0,0,1-1.59,1.58H599.73a1.57,1.57,0,0,1-1.59-1.58v-6.65a1.59,1.59,0,0,1,1.59-1.58h53.32A1.59,1.59,0,0,1,654.64,276.94Z"/><rect class="cls-19" x="615.89" y="275.36" width="29.98" height="9.82"/><path class="cls-19" d="M599.72,275.36h10.6a0,0,0,0,1,0,0v9.82a0,0,0,0,1,0,0h-10.6a1.59,1.59,0,0,1-1.59-1.59v-6.65A1.59,1.59,0,0,1,599.72,275.36Z"/><path class="cls-19" d="M599.72,275.36h10.6a0,0,0,0,1,0,0v9.82a0,0,0,0,1,0,0h-10.6a1.59,1.59,0,0,1-1.59-1.59v-6.65A1.59,1.59,0,0,1,599.72,275.36Z"/><path class="cls-19" d="M651.56,275.36H653a1.59,1.59,0,0,1,1.59,1.59v6.65a1.59,1.59,0,0,1-1.59,1.59h-1.49a0,0,0,0,1,0,0v-9.82A0,0,0,0,1,651.56,275.36Z"/><path class="cls-19" d="M654.64,276.94v6.65a1.59,1.59,0,0,1-1.59,1.58H599.73a1.6,1.6,0,0,1-1.14-.47c7.19-1.57,31.74-6.51,45.85-9.34h8.61A1.59,1.59,0,0,1,654.64,276.94Z"/><path class="cls-8" d="M648.78,267.12v6.65a1.58,1.58,0,0,1-1.58,1.58H593.87a1.64,1.64,0,0,1-1.14-.47,1.58,1.58,0,0,1-.44-1.11v-6.65a1.58,1.58,0,0,1,1.58-1.58H647.2A1.58,1.58,0,0,1,648.78,267.12Z"/><rect class="cls-19" x="610.04" y="265.54" width="29.98" height="9.82"/><path class="cls-19" d="M593.87,265.54h10.6a0,0,0,0,1,0,0v9.82a0,0,0,0,1,0,0h-10.6a1.59,1.59,0,0,1-1.59-1.59v-6.65A1.59,1.59,0,0,1,593.87,265.54Z"/><path class="cls-19" d="M593.87,265.54h10.6a0,0,0,0,1,0,0v9.82a0,0,0,0,1,0,0h-10.6a1.59,1.59,0,0,1-1.59-1.59v-6.65A1.59,1.59,0,0,1,593.87,265.54Z"/><path class="cls-19" d="M645.71,265.54h1.49a1.59,1.59,0,0,1,1.59,1.59v6.65a1.59,1.59,0,0,1-1.59,1.59h-1.49a0,0,0,0,1,0,0v-9.82A0,0,0,0,1,645.71,265.54Z"/><path class="cls-19" d="M648.78,267.12v6.65a1.58,1.58,0,0,1-1.58,1.58H593.87a1.64,1.64,0,0,1-1.14-.47c7.19-1.57,31.75-6.51,45.86-9.34h8.61A1.58,1.58,0,0,1,648.78,267.12Z"/><path class="cls-8" d="M654.64,257.3V264a1.59,1.59,0,0,1-1.59,1.59H599.73a1.61,1.61,0,0,1-1.14-.48,1.59,1.59,0,0,1-.45-1.11V257.3a1.59,1.59,0,0,1,1.59-1.58h53.32A1.59,1.59,0,0,1,654.64,257.3Z"/><rect class="cls-19" x="615.89" y="255.72" width="29.98" height="9.82"/><path class="cls-19" d="M599.72,255.72h10.6a0,0,0,0,1,0,0v9.82a0,0,0,0,1,0,0h-10.6a1.59,1.59,0,0,1-1.59-1.59v-6.65A1.59,1.59,0,0,1,599.72,255.72Z"/><path class="cls-19" d="M599.72,255.72h10.6a0,0,0,0,1,0,0v9.82a0,0,0,0,1,0,0h-10.6a1.59,1.59,0,0,1-1.59-1.59v-6.65A1.59,1.59,0,0,1,599.72,255.72Z"/><path class="cls-19" d="M651.56,255.72H653a1.59,1.59,0,0,1,1.59,1.59V264a1.59,1.59,0,0,1-1.59,1.59h-1.49a0,0,0,0,1,0,0v-9.82A0,0,0,0,1,651.56,255.72Z"/><path class="cls-19" d="M654.64,257.3V264a1.59,1.59,0,0,1-1.59,1.59H599.73a1.61,1.61,0,0,1-1.14-.48c7.19-1.56,31.74-6.51,45.85-9.34h8.61A1.59,1.59,0,0,1,654.64,257.3Z"/><path class="cls-8" d="M648.78,247.48v6.65a1.59,1.59,0,0,1-1.58,1.59H593.87a1.65,1.65,0,0,1-1.14-.48,1.58,1.58,0,0,1-.44-1.11v-6.65a1.58,1.58,0,0,1,1.58-1.58H647.2A1.58,1.58,0,0,1,648.78,247.48Z"/><rect class="cls-19" x="610.04" y="245.9" width="29.98" height="9.82"/><path class="cls-19" d="M593.87,245.9h10.6a0,0,0,0,1,0,0v9.82a0,0,0,0,1,0,0h-10.6a1.59,1.59,0,0,1-1.59-1.59v-6.65A1.59,1.59,0,0,1,593.87,245.9Z"/><path class="cls-19" d="M593.87,245.9h10.6a0,0,0,0,1,0,0v9.82a0,0,0,0,1,0,0h-10.6a1.59,1.59,0,0,1-1.59-1.59v-6.65A1.59,1.59,0,0,1,593.87,245.9Z"/><path class="cls-19" d="M645.71,245.9h1.49a1.59,1.59,0,0,1,1.59,1.59v6.65a1.59,1.59,0,0,1-1.59,1.59h-1.49a0,0,0,0,1,0,0V245.9A0,0,0,0,1,645.71,245.9Z"/><path class="cls-19" d="M648.78,247.48v6.65a1.59,1.59,0,0,1-1.58,1.59H593.87a1.65,1.65,0,0,1-1.14-.48c7.19-1.56,31.75-6.51,45.86-9.34h8.61A1.58,1.58,0,0,1,648.78,247.48Z"/><path class="cls-8" d="M654.64,237.66v6.65a1.59,1.59,0,0,1-1.59,1.59H599.73a1.61,1.61,0,0,1-1.14-.48,1.59,1.59,0,0,1-.45-1.11v-6.65a1.59,1.59,0,0,1,1.59-1.58h53.32A1.59,1.59,0,0,1,654.64,237.66Z"/><rect class="cls-19" x="615.89" y="236.08" width="29.98" height="9.82"/><path class="cls-19" d="M599.72,236.08h10.6a0,0,0,0,1,0,0v9.82a0,0,0,0,1,0,0h-10.6a1.59,1.59,0,0,1-1.59-1.59v-6.65A1.59,1.59,0,0,1,599.72,236.08Z"/><path class="cls-19" d="M599.72,236.08h10.6a0,0,0,0,1,0,0v9.82a0,0,0,0,1,0,0h-10.6a1.59,1.59,0,0,1-1.59-1.59v-6.65A1.59,1.59,0,0,1,599.72,236.08Z"/><path class="cls-19" d="M651.56,236.08H653a1.59,1.59,0,0,1,1.59,1.59v6.65A1.59,1.59,0,0,1,653,245.9h-1.49a0,0,0,0,1,0,0v-9.82A0,0,0,0,1,651.56,236.08Z"/><path class="cls-19" d="M654.64,237.66v6.65a1.59,1.59,0,0,1-1.59,1.59H599.73a1.61,1.61,0,0,1-1.14-.48c7.19-1.56,31.74-6.51,45.85-9.34h8.61A1.59,1.59,0,0,1,654.64,237.66Z"/><path class="cls-21" d="M645.67,244.62l.64,1.16a.94.94,0,0,0,.37.37l1.16.63a.94.94,0,0,1,0,1.65l-1.16.64a.83.83,0,0,0-.37.37l-.64,1.16a.94.94,0,0,1-1.65,0l-.63-1.16a.9.9,0,0,0-.38-.37l-1.16-.64a.94.94,0,0,1,0-1.65l1.16-.63a1,1,0,0,0,.38-.37l.63-1.16A.93.93,0,0,1,645.67,244.62Z"/><path class="cls-21" d="M600.46,262.55l.63,1.15a1,1,0,0,0,.38.38l1.16.63a.94.94,0,0,1,0,1.65l-1.16.64a.9.9,0,0,0-.38.37l-.63,1.16a.94.94,0,0,1-1.65,0l-.64-1.16a.83.83,0,0,0-.37-.37l-1.16-.64a.94.94,0,0,1,0-1.65l1.16-.63a.9.9,0,0,0,.37-.38l.64-1.15A.94.94,0,0,1,600.46,262.55Z"/><path class="cls-21" d="M642.19,292l.63,1.16a1,1,0,0,0,.38.38l1.16.63a.94.94,0,0,1,0,1.65l-1.16.64a.9.9,0,0,0-.38.37l-.63,1.16a.94.94,0,0,1-1.65,0l-.63-1.16a.9.9,0,0,0-.38-.37l-1.16-.64a.94.94,0,0,1,0-1.65l1.16-.63a1,1,0,0,0,.38-.38l.63-1.16A.94.94,0,0,1,642.19,292Z"/><path class="cls-8" d="M81.49,364.52v6.64a1.59,1.59,0,0,1-1.58,1.59H26.58A1.57,1.57,0,0,1,25,371.16v-6.64a1.59,1.59,0,0,1,1.58-1.59H79.91A1.59,1.59,0,0,1,81.49,364.52Z"/><rect class="cls-19" x="42.75" y="362.94" width="29.98" height="9.82"/><path class="cls-19" d="M26.58,362.94h10.6a0,0,0,0,1,0,0v9.82a0,0,0,0,1,0,0H26.58A1.59,1.59,0,0,1,25,371.17v-6.65A1.59,1.59,0,0,1,26.58,362.94Z"/><path class="cls-19" d="M26.58,362.94h10.6a0,0,0,0,1,0,0v9.82a0,0,0,0,1,0,0H26.58A1.59,1.59,0,0,1,25,371.17v-6.65A1.59,1.59,0,0,1,26.58,362.94Z"/><path class="cls-19" d="M78.42,362.94h1.49a1.59,1.59,0,0,1,1.59,1.59v6.65a1.59,1.59,0,0,1-1.59,1.59H78.42a0,0,0,0,1,0,0v-9.82A0,0,0,0,1,78.42,362.94Z"/><path class="cls-19" d="M81.49,364.52v6.64a1.59,1.59,0,0,1-1.58,1.59H26.58a1.6,1.6,0,0,1-1.14-.48c7.19-1.56,31.75-6.51,45.86-9.34h8.61A1.59,1.59,0,0,1,81.49,364.52Z"/><path class="cls-8" d="M75.64,354.7v6.64a1.59,1.59,0,0,1-1.58,1.59H20.73a1.6,1.6,0,0,1-1.14-.48,1.56,1.56,0,0,1-.44-1.11V354.7a1.59,1.59,0,0,1,1.58-1.59H74.06A1.59,1.59,0,0,1,75.64,354.7Z"/><rect class="cls-19" x="36.9" y="353.11" width="29.98" height="9.82"/><path class="cls-19" d="M20.73,353.11h10.6a0,0,0,0,1,0,0v9.82a0,0,0,0,1,0,0H20.73a1.59,1.59,0,0,1-1.59-1.59V354.7A1.59,1.59,0,0,1,20.73,353.11Z"/><path class="cls-19" d="M20.73,353.11h10.6a0,0,0,0,1,0,0v9.82a0,0,0,0,1,0,0H20.73a1.59,1.59,0,0,1-1.59-1.59V354.7A1.59,1.59,0,0,1,20.73,353.11Z"/><path class="cls-19" d="M72.57,353.11h1.49a1.59,1.59,0,0,1,1.59,1.59v6.65a1.59,1.59,0,0,1-1.59,1.59H72.57a0,0,0,0,1,0,0v-9.82A0,0,0,0,1,72.57,353.11Z"/><path class="cls-19" d="M75.64,354.7v6.64a1.59,1.59,0,0,1-1.58,1.59H20.73a1.6,1.6,0,0,1-1.14-.48c7.19-1.56,31.75-6.51,45.86-9.34h8.61A1.59,1.59,0,0,1,75.64,354.7Z"/><path class="cls-8" d="M81.49,344.88v6.65a1.58,1.58,0,0,1-1.58,1.58H26.58A1.55,1.55,0,0,1,25,351.53v-6.65a1.59,1.59,0,0,1,1.58-1.59H79.91A1.59,1.59,0,0,1,81.49,344.88Z"/><rect class="cls-19" x="42.75" y="343.3" width="29.98" height="9.82"/><path class="cls-19" d="M26.58,343.3h10.6a0,0,0,0,1,0,0v9.82a0,0,0,0,1,0,0H26.58A1.59,1.59,0,0,1,25,351.53v-6.65A1.59,1.59,0,0,1,26.58,343.3Z"/><path class="cls-19" d="M26.58,343.3h10.6a0,0,0,0,1,0,0v9.82a0,0,0,0,1,0,0H26.58A1.59,1.59,0,0,1,25,351.53v-6.65A1.59,1.59,0,0,1,26.58,343.3Z"/><path class="cls-19" d="M78.42,343.3h1.49a1.59,1.59,0,0,1,1.59,1.59v6.65a1.59,1.59,0,0,1-1.59,1.59H78.42a0,0,0,0,1,0,0V343.3A0,0,0,0,1,78.42,343.3Z"/><path class="cls-19" d="M81.49,344.88v6.65a1.58,1.58,0,0,1-1.58,1.58H26.58a1.64,1.64,0,0,1-1.14-.47c7.19-1.57,31.75-6.51,45.86-9.35h8.61A1.59,1.59,0,0,1,81.49,344.88Z"/><path class="cls-8" d="M75.64,335.06v6.65a1.58,1.58,0,0,1-1.58,1.58H20.73a1.64,1.64,0,0,1-1.14-.47,1.58,1.58,0,0,1-.44-1.11v-6.65a1.59,1.59,0,0,1,1.58-1.59H74.06A1.59,1.59,0,0,1,75.64,335.06Z"/><rect class="cls-19" x="36.9" y="333.48" width="29.98" height="9.82"/><path class="cls-19" d="M20.73,333.48h10.6a0,0,0,0,1,0,0v9.82a0,0,0,0,1,0,0H20.73a1.59,1.59,0,0,1-1.59-1.59v-6.65A1.59,1.59,0,0,1,20.73,333.48Z"/><path class="cls-19" d="M20.73,333.48h10.6a0,0,0,0,1,0,0v9.82a0,0,0,0,1,0,0H20.73a1.59,1.59,0,0,1-1.59-1.59v-6.65A1.59,1.59,0,0,1,20.73,333.48Z"/><path class="cls-19" d="M72.57,333.48h1.49a1.59,1.59,0,0,1,1.59,1.59v6.65a1.59,1.59,0,0,1-1.59,1.59H72.57a0,0,0,0,1,0,0v-9.82A0,0,0,0,1,72.57,333.48Z"/><path class="cls-19" d="M75.64,335.06v6.65a1.58,1.58,0,0,1-1.58,1.58H20.73a1.64,1.64,0,0,1-1.14-.47c7.19-1.57,31.75-6.51,45.86-9.35h8.61A1.59,1.59,0,0,1,75.64,335.06Z"/><path class="cls-8" d="M81.49,325.24v6.65a1.58,1.58,0,0,1-1.58,1.58H26.58A1.55,1.55,0,0,1,25,331.89v-6.65a1.58,1.58,0,0,1,1.58-1.58H79.91A1.58,1.58,0,0,1,81.49,325.24Z"/><rect class="cls-19" x="42.75" y="323.66" width="29.98" height="9.82"/><path class="cls-19" d="M26.58,323.66h10.6a0,0,0,0,1,0,0v9.82a0,0,0,0,1,0,0H26.58A1.59,1.59,0,0,1,25,331.89v-6.65A1.59,1.59,0,0,1,26.58,323.66Z"/><path class="cls-19" d="M26.58,323.66h10.6a0,0,0,0,1,0,0v9.82a0,0,0,0,1,0,0H26.58A1.59,1.59,0,0,1,25,331.89v-6.65A1.59,1.59,0,0,1,26.58,323.66Z"/><path class="cls-19" d="M78.42,323.66h1.49a1.59,1.59,0,0,1,1.59,1.59v6.65a1.59,1.59,0,0,1-1.59,1.59H78.42a0,0,0,0,1,0,0v-9.82A0,0,0,0,1,78.42,323.66Z"/><path class="cls-19" d="M81.49,325.24v6.65a1.58,1.58,0,0,1-1.58,1.58H26.58a1.64,1.64,0,0,1-1.14-.47c7.19-1.56,31.75-6.51,45.86-9.34h8.61A1.58,1.58,0,0,1,81.49,325.24Z"/><path class="cls-8" d="M75.64,315.42v6.65a1.58,1.58,0,0,1-1.58,1.58H20.73a1.64,1.64,0,0,1-1.14-.47,1.58,1.58,0,0,1-.44-1.11v-6.65a1.58,1.58,0,0,1,1.58-1.58H74.06A1.58,1.58,0,0,1,75.64,315.42Z"/><rect class="cls-19" x="36.9" y="313.84" width="29.98" height="9.82"/><path class="cls-19" d="M20.73,313.84h10.6a0,0,0,0,1,0,0v9.82a0,0,0,0,1,0,0H20.73a1.59,1.59,0,0,1-1.59-1.59v-6.65A1.59,1.59,0,0,1,20.73,313.84Z"/><path class="cls-19" d="M20.73,313.84h10.6a0,0,0,0,1,0,0v9.82a0,0,0,0,1,0,0H20.73a1.59,1.59,0,0,1-1.59-1.59v-6.65A1.59,1.59,0,0,1,20.73,313.84Z"/><path class="cls-19" d="M72.57,313.84h1.49a1.59,1.59,0,0,1,1.59,1.59v6.65a1.59,1.59,0,0,1-1.59,1.59H72.57a0,0,0,0,1,0,0v-9.82A0,0,0,0,1,72.57,313.84Z"/><path class="cls-19" d="M75.64,315.42v6.65a1.58,1.58,0,0,1-1.58,1.58H20.73a1.64,1.64,0,0,1-1.14-.47c7.19-1.56,31.75-6.51,45.86-9.34h8.61A1.58,1.58,0,0,1,75.64,315.42Z"/><path class="cls-8" d="M81.49,305.6v6.65a1.58,1.58,0,0,1-1.58,1.58H26.58A1.55,1.55,0,0,1,25,312.25V305.6A1.58,1.58,0,0,1,26.58,304H79.91A1.58,1.58,0,0,1,81.49,305.6Z"/><rect class="cls-19" x="42.75" y="304.02" width="29.98" height="9.82"/><path class="cls-19" d="M26.58,304h10.6a0,0,0,0,1,0,0v9.82a0,0,0,0,1,0,0H26.58A1.59,1.59,0,0,1,25,312.25v-6.65A1.59,1.59,0,0,1,26.58,304Z"/><path class="cls-19" d="M26.58,304h10.6a0,0,0,0,1,0,0v9.82a0,0,0,0,1,0,0H26.58A1.59,1.59,0,0,1,25,312.25v-6.65A1.59,1.59,0,0,1,26.58,304Z"/><path class="cls-19" d="M78.42,304h1.49a1.59,1.59,0,0,1,1.59,1.59v6.65a1.59,1.59,0,0,1-1.59,1.59H78.42a0,0,0,0,1,0,0V304A0,0,0,0,1,78.42,304Z"/><path class="cls-19" d="M81.49,305.6v6.65a1.58,1.58,0,0,1-1.58,1.58H26.58a1.64,1.64,0,0,1-1.14-.47c7.19-1.56,31.75-6.51,45.86-9.34h8.61A1.58,1.58,0,0,1,81.49,305.6Z"/><path class="cls-21" d="M72.53,312.55l.64,1.16a.9.9,0,0,0,.37.38l1.16.63a.94.94,0,0,1,0,1.65l-1.16.64a.83.83,0,0,0-.37.37l-.64,1.16a.94.94,0,0,1-1.65,0l-.63-1.16a.9.9,0,0,0-.38-.37l-1.16-.64a.94.94,0,0,1,0-1.65l1.16-.63a1,1,0,0,0,.38-.38l.63-1.16A.94.94,0,0,1,72.53,312.55Z"/><path class="cls-21" d="M27.32,330.48l.63,1.16a1,1,0,0,0,.38.38l1.16.63a.94.94,0,0,1,0,1.65l-1.16.64a.9.9,0,0,0-.38.37l-.63,1.16a.94.94,0,0,1-1.65,0L25,335.31a.83.83,0,0,0-.37-.37l-1.16-.64a.94.94,0,0,1,0-1.65l1.16-.63a.9.9,0,0,0,.37-.38l.64-1.16A.94.94,0,0,1,27.32,330.48Z"/><path class="cls-21" d="M69.05,359.94l.63,1.16a1,1,0,0,0,.38.38l1.16.63a.94.94,0,0,1,0,1.65l-1.16.63a1,1,0,0,0-.38.38l-.63,1.16a.94.94,0,0,1-1.65,0l-.64-1.16a.9.9,0,0,0-.37-.38l-1.16-.63a.94.94,0,0,1,0-1.65l1.16-.63a.9.9,0,0,0,.37-.38l.64-1.16A.94.94,0,0,1,69.05,359.94Z"/><path class="cls-8" d="M73.93,296.58v6.64a1.59,1.59,0,0,1-1.59,1.59H19a1.59,1.59,0,0,1-1.59-1.59v-6.64A1.59,1.59,0,0,1,19,295H72.34A1.59,1.59,0,0,1,73.93,296.58Z"/><rect class="cls-19" x="35.18" y="295" width="29.98" height="9.82"/><path class="cls-19" d="M19,295h10.6a0,0,0,0,1,0,0v9.82a0,0,0,0,1,0,0H19a1.59,1.59,0,0,1-1.59-1.59v-6.65A1.59,1.59,0,0,1,19,295Z"/><path class="cls-19" d="M19,295h10.6a0,0,0,0,1,0,0v9.82a0,0,0,0,1,0,0H19a1.59,1.59,0,0,1-1.59-1.59v-6.65A1.59,1.59,0,0,1,19,295Z"/><path class="cls-19" d="M70.85,295h1.49a1.59,1.59,0,0,1,1.59,1.59v6.65a1.59,1.59,0,0,1-1.59,1.59H70.85a0,0,0,0,1,0,0V295A0,0,0,0,1,70.85,295Z"/><path class="cls-19" d="M73.93,296.58v6.64a1.59,1.59,0,0,1-1.59,1.59H19a1.57,1.57,0,0,1-1.14-.48c7.18-1.56,31.74-6.5,45.85-9.34h8.61A1.59,1.59,0,0,1,73.93,296.58Z"/><path class="cls-8" d="M68.07,286.76v6.64A1.59,1.59,0,0,1,66.49,295H13.16a1.6,1.6,0,0,1-1.14-.48,1.55,1.55,0,0,1-.44-1.11v-6.64a1.59,1.59,0,0,1,1.58-1.59H66.49A1.59,1.59,0,0,1,68.07,286.76Z"/><rect class="cls-19" x="29.33" y="285.18" width="29.98" height="9.82"/><path class="cls-19" d="M13.16,285.18h10.6a0,0,0,0,1,0,0V295a0,0,0,0,1,0,0H13.16a1.59,1.59,0,0,1-1.59-1.59v-6.65A1.59,1.59,0,0,1,13.16,285.18Z"/><path class="cls-19" d="M13.16,285.18h10.6a0,0,0,0,1,0,0V295a0,0,0,0,1,0,0H13.16a1.59,1.59,0,0,1-1.59-1.59v-6.65A1.59,1.59,0,0,1,13.16,285.18Z"/><path class="cls-19" d="M65,285.18h1.49a1.59,1.59,0,0,1,1.59,1.59v6.65A1.59,1.59,0,0,1,66.48,295H65a0,0,0,0,1,0,0v-9.82A0,0,0,0,1,65,285.18Z"/><path class="cls-19" d="M68.07,286.76v6.64A1.59,1.59,0,0,1,66.49,295H13.16a1.6,1.6,0,0,1-1.14-.48c7.19-1.56,31.75-6.5,45.86-9.34h8.61A1.59,1.59,0,0,1,68.07,286.76Z"/><path class="cls-8" d="M73.93,276.94v6.65a1.59,1.59,0,0,1-1.59,1.58H19a1.57,1.57,0,0,1-1.59-1.58v-6.65A1.59,1.59,0,0,1,19,275.36H72.34A1.59,1.59,0,0,1,73.93,276.94Z"/><rect class="cls-19" x="35.18" y="275.36" width="29.98" height="9.82"/><path class="cls-19" d="M19,275.36h10.6a0,0,0,0,1,0,0v9.82a0,0,0,0,1,0,0H19a1.59,1.59,0,0,1-1.59-1.59v-6.65A1.59,1.59,0,0,1,19,275.36Z"/><path class="cls-19" d="M19,275.36h10.6a0,0,0,0,1,0,0v9.82a0,0,0,0,1,0,0H19a1.59,1.59,0,0,1-1.59-1.59v-6.65A1.59,1.59,0,0,1,19,275.36Z"/><path class="cls-19" d="M70.85,275.36h1.49a1.59,1.59,0,0,1,1.59,1.59v6.65a1.59,1.59,0,0,1-1.59,1.59H70.85a0,0,0,0,1,0,0v-9.82A0,0,0,0,1,70.85,275.36Z"/><path class="cls-19" d="M73.93,276.94v6.65a1.59,1.59,0,0,1-1.59,1.58H19a1.6,1.6,0,0,1-1.14-.47c7.18-1.57,31.74-6.51,45.85-9.34h8.61A1.59,1.59,0,0,1,73.93,276.94Z"/><path class="cls-8" d="M68.07,267.12v6.65a1.58,1.58,0,0,1-1.58,1.58H13.16a1.64,1.64,0,0,1-1.14-.47,1.58,1.58,0,0,1-.44-1.11v-6.65a1.58,1.58,0,0,1,1.58-1.58H66.49A1.58,1.58,0,0,1,68.07,267.12Z"/><rect class="cls-19" x="29.33" y="265.54" width="29.98" height="9.82"/><path class="cls-19" d="M13.16,265.54h10.6a0,0,0,0,1,0,0v9.82a0,0,0,0,1,0,0H13.16a1.59,1.59,0,0,1-1.59-1.59v-6.65A1.59,1.59,0,0,1,13.16,265.54Z"/><path class="cls-19" d="M13.16,265.54h10.6a0,0,0,0,1,0,0v9.82a0,0,0,0,1,0,0H13.16a1.59,1.59,0,0,1-1.59-1.59v-6.65A1.59,1.59,0,0,1,13.16,265.54Z"/><path class="cls-19" d="M65,265.54h1.49a1.59,1.59,0,0,1,1.59,1.59v6.65a1.59,1.59,0,0,1-1.59,1.59H65a0,0,0,0,1,0,0v-9.82A0,0,0,0,1,65,265.54Z"/><path class="cls-19" d="M68.07,267.12v6.65a1.58,1.58,0,0,1-1.58,1.58H13.16a1.64,1.64,0,0,1-1.14-.47c7.19-1.57,31.75-6.51,45.86-9.34h8.61A1.58,1.58,0,0,1,68.07,267.12Z"/><path class="cls-8" d="M73.93,257.3V264a1.59,1.59,0,0,1-1.59,1.59H19a1.61,1.61,0,0,1-1.14-.48,1.59,1.59,0,0,1-.45-1.11V257.3A1.59,1.59,0,0,1,19,255.72H72.34A1.59,1.59,0,0,1,73.93,257.3Z"/><rect class="cls-19" x="35.18" y="255.72" width="29.98" height="9.82"/><path class="cls-19" d="M19,255.72h10.6a0,0,0,0,1,0,0v9.82a0,0,0,0,1,0,0H19A1.59,1.59,0,0,1,17.43,264v-6.65A1.59,1.59,0,0,1,19,255.72Z"/><path class="cls-19" d="M19,255.72h10.6a0,0,0,0,1,0,0v9.82a0,0,0,0,1,0,0H19A1.59,1.59,0,0,1,17.43,264v-6.65A1.59,1.59,0,0,1,19,255.72Z"/><path class="cls-19" d="M70.85,255.72h1.49a1.59,1.59,0,0,1,1.59,1.59V264a1.59,1.59,0,0,1-1.59,1.59H70.85a0,0,0,0,1,0,0v-9.82A0,0,0,0,1,70.85,255.72Z"/><path class="cls-19" d="M73.93,257.3V264a1.59,1.59,0,0,1-1.59,1.59H19a1.61,1.61,0,0,1-1.14-.48c7.18-1.56,31.74-6.51,45.85-9.34h8.61A1.59,1.59,0,0,1,73.93,257.3Z"/><path class="cls-8" d="M68.07,247.48v6.65a1.59,1.59,0,0,1-1.58,1.59H13.16a1.65,1.65,0,0,1-1.14-.48,1.58,1.58,0,0,1-.44-1.11v-6.65a1.58,1.58,0,0,1,1.58-1.58H66.49A1.58,1.58,0,0,1,68.07,247.48Z"/><rect class="cls-19" x="29.33" y="245.9" width="29.98" height="9.82"/><path class="cls-19" d="M13.16,245.9h10.6a0,0,0,0,1,0,0v9.82a0,0,0,0,1,0,0H13.16a1.59,1.59,0,0,1-1.59-1.59v-6.65A1.59,1.59,0,0,1,13.16,245.9Z"/><path class="cls-19" d="M13.16,245.9h10.6a0,0,0,0,1,0,0v9.82a0,0,0,0,1,0,0H13.16a1.59,1.59,0,0,1-1.59-1.59v-6.65A1.59,1.59,0,0,1,13.16,245.9Z"/><path class="cls-19" d="M65,245.9h1.49a1.59,1.59,0,0,1,1.59,1.59v6.65a1.59,1.59,0,0,1-1.59,1.59H65a0,0,0,0,1,0,0V245.9A0,0,0,0,1,65,245.9Z"/><path class="cls-19" d="M68.07,247.48v6.65a1.59,1.59,0,0,1-1.58,1.59H13.16a1.65,1.65,0,0,1-1.14-.48c7.19-1.56,31.75-6.51,45.86-9.34h8.61A1.58,1.58,0,0,1,68.07,247.48Z"/><path class="cls-8" d="M73.93,237.66v6.65a1.59,1.59,0,0,1-1.59,1.59H19a1.61,1.61,0,0,1-1.14-.48,1.59,1.59,0,0,1-.45-1.11v-6.65A1.59,1.59,0,0,1,19,236.08H72.34A1.59,1.59,0,0,1,73.93,237.66Z"/><rect class="cls-19" x="35.18" y="236.08" width="29.98" height="9.82"/><path class="cls-19" d="M19,236.08h10.6a0,0,0,0,1,0,0v9.82a0,0,0,0,1,0,0H19a1.59,1.59,0,0,1-1.59-1.59v-6.65A1.59,1.59,0,0,1,19,236.08Z"/><path class="cls-19" d="M19,236.08h10.6a0,0,0,0,1,0,0v9.82a0,0,0,0,1,0,0H19a1.59,1.59,0,0,1-1.59-1.59v-6.65A1.59,1.59,0,0,1,19,236.08Z"/><path class="cls-19" d="M70.85,236.08h1.49a1.59,1.59,0,0,1,1.59,1.59v6.65a1.59,1.59,0,0,1-1.59,1.59H70.85a0,0,0,0,1,0,0v-9.82A0,0,0,0,1,70.85,236.08Z"/><path class="cls-19" d="M73.93,237.66v6.65a1.59,1.59,0,0,1-1.59,1.59H19a1.61,1.61,0,0,1-1.14-.48c7.18-1.56,31.74-6.51,45.85-9.34h8.61A1.59,1.59,0,0,1,73.93,237.66Z"/><path class="cls-21" d="M65,244.62l.64,1.16a.94.94,0,0,0,.37.37l1.16.63a.94.94,0,0,1,0,1.65l-1.16.64a.83.83,0,0,0-.37.37L65,250.6a.94.94,0,0,1-1.65,0l-.63-1.16a.9.9,0,0,0-.38-.37l-1.16-.64a.94.94,0,0,1,0-1.65l1.16-.63a1,1,0,0,0,.38-.37l.63-1.16A.93.93,0,0,1,65,244.62Z"/><path class="cls-21" d="M19.75,262.55l.63,1.15a1,1,0,0,0,.38.38l1.16.63a.94.94,0,0,1,0,1.65l-1.16.64a.9.9,0,0,0-.38.37l-.63,1.16a.94.94,0,0,1-1.65,0l-.64-1.16a.83.83,0,0,0-.37-.37l-1.16-.64a.94.94,0,0,1,0-1.65l1.16-.63a.9.9,0,0,0,.37-.38l.64-1.15A.94.94,0,0,1,19.75,262.55Z"/><path class="cls-21" d="M61.48,292l.63,1.16a1,1,0,0,0,.38.38l1.16.63a.94.94,0,0,1,0,1.65l-1.16.64a.9.9,0,0,0-.38.37L61.48,298a.94.94,0,0,1-1.65,0l-.64-1.16a.83.83,0,0,0-.37-.37l-1.16-.64a.94.94,0,0,1,0-1.65l1.16-.63a.9.9,0,0,0,.37-.38l.64-1.16A.94.94,0,0,1,61.48,292Z"/></g></g></g></svg>